<svg xmlns="http://www.w3.org/2000/svg" width="72" height="72.005" viewBox="0 0 72 72.005">
  <g id="contrato" transform="translate(-0.018)">
    <g id="Grupo_1192168" data-name="Grupo 1192168" transform="translate(0.018)">
      <g id="Grupo_1192167" data-name="Grupo 1192167">
        <path id="Trazado_1094124" data-name="Trazado 1094124" d="M70.162,22.66a6.336,6.336,0,0,0-8.951,0l-6.347,6.352V12.3A6.286,6.286,0,0,0,53.012,7.82L47.045,1.854A6.287,6.287,0,0,0,42.57,0H6.347A6.336,6.336,0,0,0,.018,6.329V65.676A6.336,6.336,0,0,0,6.347,72h42.19a6.336,6.336,0,0,0,6.329-6.329V46.92l15.3-15.31A6.325,6.325,0,0,0,70.162,22.66ZM42.208,4.219a2.3,2.3,0,0,1,1.854.618L50.028,10.8a2.3,2.3,0,0,1,.618,1.854H42.208Zm8.438,61.457a2.112,2.112,0,0,1-2.11,2.11H6.347a2.112,2.112,0,0,1-2.11-2.11V6.329a2.112,2.112,0,0,1,2.11-2.11H37.989V14.767a2.11,2.11,0,0,0,2.11,2.11H50.646V33.235l-6.224,6.229-2.982,2.982a2.109,2.109,0,0,0-.51.825l-2.983,8.95a2.11,2.11,0,0,0,2.668,2.668l8.95-2.983a2.108,2.108,0,0,0,.825-.51l.256-.256V65.676ZM45.915,43.938,48.9,46.921l-1.14,1.14-4.475,1.492,1.492-4.475Zm5.966,0L48.9,40.954,59.038,30.8l2.983,2.983Zm15.3-15.31L65,30.8,62.021,27.82,64.2,25.643a2.109,2.109,0,1,1,2.983,2.984Z" transform="translate(-0.018)" fill="#20849e"/>
      </g>
    </g>
    <g id="Grupo_1192170" data-name="Grupo 1192170" transform="translate(8.456 21.095)">
      <g id="Grupo_1192169" data-name="Grupo 1192169">
        <path id="Trazado_1094125" data-name="Trazado 1094125" d="M91.661,150H62.128a2.11,2.11,0,1,0,0,4.219H91.661a2.11,2.11,0,1,0,0-4.219Z" transform="translate(-60.018 -150)" fill="#20849e"/>
      </g>
    </g>
    <g id="Grupo_1192172" data-name="Grupo 1192172" transform="translate(8.456 29.533)">
      <g id="Grupo_1192171" data-name="Grupo 1192171">
        <path id="Trazado_1094126" data-name="Trazado 1094126" d="M83.223,210h-21.1a2.11,2.11,0,1,0,0,4.219h21.1a2.11,2.11,0,1,0,0-4.219Z" transform="translate(-60.018 -210)" fill="#20849e"/>
      </g>
    </g>
    <g id="Grupo_1192174" data-name="Grupo 1192174" transform="translate(8.456 37.971)">
      <g id="Grupo_1192173" data-name="Grupo 1192173">
        <path id="Trazado_1094127" data-name="Trazado 1094127" d="M83.223,270h-21.1a2.109,2.109,0,1,0,0,4.219h21.1a2.109,2.109,0,1,0,0-4.219Z" transform="translate(-60.018 -270)" fill="#20849e"/>
      </g>
    </g>
    <g id="Grupo_1192176" data-name="Grupo 1192176" transform="translate(8.456 46.409)">
      <g id="Grupo_1192175" data-name="Grupo 1192175">
        <path id="Trazado_1094128" data-name="Trazado 1094128" d="M83.223,330h-21.1a2.11,2.11,0,1,0,0,4.219h21.1a2.11,2.11,0,1,0,0-4.219Z" transform="translate(-60.018 -330)" fill="#20849e"/>
      </g>
    </g>
    <g id="Grupo_1192178" data-name="Grupo 1192178" transform="translate(25.332 59.348)">
      <g id="Grupo_1192177" data-name="Grupo 1192177">
        <path id="Trazado_1094129" data-name="Trazado 1094129" d="M194.785,422H182.128a2.109,2.109,0,1,0,0,4.219h12.657a2.109,2.109,0,0,0,0-4.219Z" transform="translate(-180.018 -422)" fill="#20849e"/>
      </g>
    </g>
  </g>
</svg>
