<svg xmlns="http://www.w3.org/2000/svg" width="84" height="80.22" viewBox="0 0 84 80.22">
  <g id="analisis" transform="translate(-1.999 -3.35)">
    <path id="Trazado_1094545" data-name="Trazado 1094545" d="M84.6,71.894H80.47V32.039a7.827,7.827,0,0,0-7.812-7.826h-14a14.647,14.647,0,0,0-3.3-7.966l1.578-1.569a1.4,1.4,0,1,0-1.974-1.985l-1.583,1.574a14.7,14.7,0,0,0-5.844-2.932V10.192h.409a2.343,2.343,0,0,0,2.339-2.339V5.689A2.343,2.343,0,0,0,47.937,3.35H40.062a2.343,2.343,0,0,0-2.339,2.339V7.852a2.343,2.343,0,0,0,2.339,2.339h.409v1.142a14.685,14.685,0,0,0-5.844,2.932l-1.583-1.574a1.4,1.4,0,0,0-1.974,1.985l1.578,1.569a14.668,14.668,0,0,0-3.3,7.966h-14a7.828,7.828,0,0,0-7.812,7.826V71.894H3.4a1.4,1.4,0,0,0-1.4,1.4v2.738A7.546,7.546,0,0,0,9.537,83.57H78.461A7.546,7.546,0,0,0,86,76.032V73.294a1.4,1.4,0,0,0-1.4-1.4ZM40.524,6.15h6.954V7.393H40.524ZM43.272,10.2h1.456v.728c-.242-.013-.482-.036-.728-.036s-.486.025-.728.036ZM44,13.69A11.927,11.927,0,1,1,32.074,25.617,11.94,11.94,0,0,1,44,13.69ZM10.33,32.039a5.025,5.025,0,0,1,5.012-5.026h14a14.721,14.721,0,0,0,29.31,0h14a5.025,5.025,0,0,1,5.012,5.026V71.894h-6V40.66a1.4,1.4,0,0,0-1.4-1.4H59.76a1.4,1.4,0,0,0-1.4,1.4v13.5H50.653V46.607a1.4,1.4,0,0,0-1.4-1.4H38.746a1.4,1.4,0,0,0-1.4,1.4v7.554H28.239a1.4,1.4,0,0,0-1.4,1.4v6.349H17.732a1.4,1.4,0,0,0-1.4,1.4V71.9h-6V32.04Zm19.31,31.27V56.96h7.707V71.894H29.641Zm10.507-7.748V48.007h7.707V71.894H40.148V55.56Zm21.013,0V42.06h7.707V71.894H61.16V55.56Zm-2.8,16.332H50.653V56.96H58.36Zm-31.52,0H19.134V64.709h7.707ZM83.2,76.032a4.743,4.743,0,0,1-4.738,4.738H9.538A4.743,4.743,0,0,1,4.8,76.032V74.694H8.918a.057.057,0,0,0,.014,0h70.14a.057.057,0,0,1,.014,0H83.2v1.338Z" fill="#20849e"/>
    <path id="Trazado_1094546" data-name="Trazado 1094546" d="M41.92,55.273H27.112a1.4,1.4,0,1,0,0,2.8H41.92a1.4,1.4,0,0,0,0-2.8Z" transform="translate(9.485 20.769)" fill="#20849e"/>
    <path id="Trazado_1094547" data-name="Trazado 1094547" d="M32.4,23.3a1.4,1.4,0,0,0,1.4-1.4V14.046a1.4,1.4,0,0,0-2.8,0V21.9A1.4,1.4,0,0,0,32.4,23.3Z" transform="translate(11.6 3.718)" fill="#20849e"/>
  </g>
</svg>
