<svg xmlns="http://www.w3.org/2000/svg" width="136" height="136" viewBox="0 0 136 136">
  <g id="Grupo_1192733" data-name="Grupo 1192733" transform="translate(-1121.298 -6913.912)">
    <circle id="Elipse_13762" data-name="Elipse 13762" cx="68" cy="68" r="68" transform="translate(1121.298 6913.912)" fill="#b8dcf3"/>
    <g id="despertador" transform="translate(1152.373 6924.907)">
      <g id="Grupo_1192634" data-name="Grupo 1192634" transform="translate(8.648 30.908)">
        <g id="Grupo_1192633" data-name="Grupo 1192633" transform="translate(0 0)">
          <path id="Trazado_1094555" data-name="Trazado 1094555" d="M88.548,77.017a27.791,27.791,0,1,0,27.791,27.791A27.823,27.823,0,0,0,88.548,77.017Zm0,50.546A22.754,22.754,0,1,1,111.3,104.809,22.78,22.78,0,0,1,88.548,127.563Z" transform="translate(-60.757 -77.017)" fill="#20849e"/>
        </g>
      </g>
      <g id="Grupo_1192636" data-name="Grupo 1192636" transform="translate(32.409 45.601)">
        <g id="Grupo_1192635" data-name="Grupo 1192635">
          <path id="Trazado_1094556" data-name="Trazado 1094556" d="M239.442,192.5h-6.717v-9.739a2.519,2.519,0,1,0-5.038,0V195.02a2.519,2.519,0,0,0,2.519,2.519h9.236a2.519,2.519,0,1,0,0-5.038Z" transform="translate(-227.688 -180.243)" fill="#20849e"/>
        </g>
      </g>
      <g id="Grupo_1192638" data-name="Grupo 1192638" transform="translate(10.411 76.079)">
        <g id="Grupo_1192637" data-name="Grupo 1192637" transform="translate(0 0)">
          <path id="Trazado_1094557" data-name="Trazado 1094557" d="M84.9,395.014a2.519,2.519,0,0,0-3.557.187l-7.556,8.4a2.519,2.519,0,1,0,3.745,3.369l7.556-8.4A2.518,2.518,0,0,0,84.9,395.014Z" transform="translate(-73.143 -394.368)" fill="#20849e"/>
        </g>
      </g>
      <g id="Grupo_1192640" data-name="Grupo 1192640" transform="translate(49.874 76.08)">
        <g id="Grupo_1192639" data-name="Grupo 1192639" transform="translate(0 0)">
          <path id="Trazado_1094558" data-name="Trazado 1094558" d="M362.336,403.6l-7.556-8.4a2.518,2.518,0,0,0-3.744,3.37l7.556,8.4a2.518,2.518,0,1,0,3.744-3.369Z" transform="translate(-350.389 -394.371)" fill="#20849e"/>
        </g>
      </g>
      <g id="Grupo_1192642" data-name="Grupo 1192642" transform="translate(0 23.256)">
        <g id="Grupo_1192641" data-name="Grupo 1192641" transform="translate(0 0)">
          <path id="Trazado_1094559" data-name="Trazado 1094559" d="M21.744,26.93a12.826,12.826,0,0,0-17.983.019A12.691,12.691,0,0,0,0,36.048,12.5,12.5,0,0,0,3.779,44.97a2.52,2.52,0,0,0,3.543-.019L21.763,30.511a2.52,2.52,0,0,0-.019-3.581ZM5.818,39.332a7.508,7.508,0,0,1-.78-3.311A7.689,7.689,0,0,1,12.73,28.29a7.866,7.866,0,0,1,3.371.758Z" transform="translate(0 -23.26)" fill="#20849e"/>
        </g>
      </g>
      <g id="Grupo_1192644" data-name="Grupo 1192644" transform="translate(50.376 23.256)">
        <g id="Grupo_1192643" data-name="Grupo 1192643" transform="translate(0 0)">
          <path id="Trazado_1094560" data-name="Trazado 1094560" d="M372.659,26.944a12.828,12.828,0,0,0-17.984-.019,2.519,2.519,0,0,0-.019,3.581L369.1,44.948a2.517,2.517,0,0,0,3.543.018,12.487,12.487,0,0,0,3.779-8.922A12.7,12.7,0,0,0,372.659,26.944ZM370.6,39.328,360.318,29.045a7.708,7.708,0,0,1,11.063,6.974A7.506,7.506,0,0,1,370.6,39.328Z" transform="translate(-353.918 -23.256)" fill="#20849e"/>
        </g>
      </g>
    </g>
  </g>
</svg>
