<svg xmlns="http://www.w3.org/2000/svg" width="124" height="124" viewBox="0 0 124 124">
  <g id="Grupo_1192290" data-name="Grupo 1192290" transform="translate(7114.859 9624.454)">
    <g id="Grupo_1192283" data-name="Grupo 1192283" transform="translate(-7508.207 -17585.906)">
      <g id="Grupo_1190808" data-name="Grupo 1190808" transform="translate(-708.875 4775)">
        <circle id="Elipse_11474" data-name="Elipse 11474" cx="62" cy="62" r="62" transform="translate(1102.223 3186.452)" fill="#fff"/>
      </g>
    </g>
    <g id="development" transform="translate(-7087.869 -9589.975)">
      <g id="Grupo_1192268" data-name="Grupo 1192268" transform="translate(0 0)">
        <path id="Trazado_1094225" data-name="Trazado 1094225" d="M69.483,68.41h-14.8a.8.8,0,0,1,0-1.591h14.8a3.946,3.946,0,0,0,3.947-3.947V18.138a3.946,3.946,0,0,0-3.947-3.947H10.538a3.946,3.946,0,0,0-3.947,3.947V62.872a3.946,3.946,0,0,0,3.947,3.947h14.8a.8.8,0,0,1,0,1.591h-14.8A5.556,5.556,0,0,1,5,62.856V18.138A5.542,5.542,0,0,1,10.538,12.6H69.483a5.542,5.542,0,0,1,5.538,5.538V62.872A5.552,5.552,0,0,1,69.483,68.41Z" transform="translate(-5 -12.6)" fill="#20849e"/>
      </g>
      <g id="Grupo_1192273" data-name="Grupo 1192273" transform="translate(5.618 3.612)">
        <g id="Grupo_1192269" data-name="Grupo 1192269">
          <path id="Trazado_1094226" data-name="Trazado 1094226" d="M43.594,41.888a3.294,3.294,0,1,1,3.294-3.294A3.3,3.3,0,0,1,43.594,41.888Zm0-5a1.7,1.7,0,1,0,1.7,1.7A1.7,1.7,0,0,0,43.594,36.891Z" transform="translate(-40.3 -35.3)" fill="#20849e"/>
        </g>
        <g id="Grupo_1192270" data-name="Grupo 1192270" transform="translate(8.848)">
          <path id="Trazado_1094227" data-name="Trazado 1094227" d="M99.194,41.888a3.294,3.294,0,1,1,3.294-3.294A3.3,3.3,0,0,1,99.194,41.888Zm0-5a1.7,1.7,0,1,0,1.7,1.7A1.7,1.7,0,0,0,99.194,36.891Z" transform="translate(-95.9 -35.3)" fill="#20849e"/>
        </g>
        <g id="Grupo_1192271" data-name="Grupo 1192271" transform="translate(17.712)">
          <path id="Trazado_1094228" data-name="Trazado 1094228" d="M154.894,41.888a3.294,3.294,0,1,1,3.294-3.294A3.3,3.3,0,0,1,154.894,41.888Zm0-5a1.7,1.7,0,1,0,1.7,1.7A1.7,1.7,0,0,0,154.894,36.891Z" transform="translate(-151.6 -35.3)" fill="#20849e"/>
        </g>
        <g id="Grupo_1192272" data-name="Grupo 1192272" transform="translate(37.668)">
          <path id="Trazado_1094229" data-name="Trazado 1094229" d="M294.824,41.888H280.294a3.294,3.294,0,0,1,0-6.588h14.529a3.294,3.294,0,0,1,0,6.588Zm-14.529-5a1.7,1.7,0,0,0,0,3.406h14.529a1.7,1.7,0,0,0,0-3.406Z" transform="translate(-277 -35.3)" fill="#20849e"/>
        </g>
      </g>
      <g id="Grupo_1192274" data-name="Grupo 1192274" transform="translate(0 12.238)">
        <path id="Trazado_1094230" data-name="Trazado 1094230" d="M74.225,91.091H5.8a.8.8,0,0,1,0-1.591h68.43a.788.788,0,0,1,.8.8A.8.8,0,0,1,74.225,91.091Z" transform="translate(-5 -89.5)" fill="#20849e"/>
      </g>
      <g id="Grupo_1192275" data-name="Grupo 1192275" transform="translate(26.831 37.493)">
        <path id="Trazado_1094231" data-name="Trazado 1094231" d="M181.78,264.56a8.18,8.18,0,1,1,8.18-8.18A8.187,8.187,0,0,1,181.78,264.56Zm0-14.752a6.58,6.58,0,1,0,6.588,6.572A6.6,6.6,0,0,0,181.78,249.807Z" transform="translate(-173.6 -248.2)" fill="#20849e"/>
      </g>
      <g id="Grupo_1192276" data-name="Grupo 1192276" transform="translate(21.77 32.449)">
        <path id="Trazado_1094232" data-name="Trazado 1094232" d="M155.04,242.981a13.24,13.24,0,1,1,13.24-13.24,13.251,13.251,0,0,1-13.24,13.24Zm0-24.905a11.649,11.649,0,1,0,11.649,11.649A11.665,11.665,0,0,0,155.04,218.075Z" transform="translate(-141.8 -216.5)" fill="#20849e"/>
      </g>
      <g id="Grupo_1192277" data-name="Grupo 1192277" transform="translate(13.081 23.744)">
        <path id="Trazado_1094233" data-name="Trazado 1094233" d="M112.869,205.659h-7.48a.788.788,0,0,1-.8-.8v-3.517a18.211,18.211,0,0,1-4.711-1.957L97.4,201.871a.788.788,0,0,1-1.13,0l-5.283-5.283a.817.817,0,0,1,0-1.13l2.483-2.483a18.211,18.211,0,0,1-1.957-4.711H88a.788.788,0,0,1-.8-.8v-7.48a.788.788,0,0,1,.8-.8h3.517a18.211,18.211,0,0,1,1.957-4.711L90.987,172a.817.817,0,0,1,0-1.13l5.283-5.283a.817.817,0,0,1,1.13,0l2.483,2.483a18.211,18.211,0,0,1,4.711-1.957V162.6a.788.788,0,0,1,.8-.8h7.48a.788.788,0,0,1,.8.8v3.533a18.212,18.212,0,0,1,4.711,1.957l2.483-2.483a.817.817,0,0,1,1.13,0l5.283,5.283a.788.788,0,0,1,0,1.13l-2.483,2.483a18.211,18.211,0,0,1,1.957,4.711h3.517a.788.788,0,0,1,.8.8v7.48a.788.788,0,0,1-.8.8h-3.517a18.211,18.211,0,0,1-1.957,4.711l2.483,2.483a.788.788,0,0,1,0,1.13l-5.283,5.283a.788.788,0,0,1-1.13,0l-2.483-2.483a18.21,18.21,0,0,1-4.711,1.957v3.517A.785.785,0,0,1,112.869,205.659Zm-6.684-1.591h5.888V200.71a.786.786,0,0,1,.621-.78,16.186,16.186,0,0,0,5.363-2.228.773.773,0,0,1,.987.111l2.371,2.371,4.169-4.169-2.371-2.355a.8.8,0,0,1-.111-.987,16.527,16.527,0,0,0,2.228-5.363.786.786,0,0,1,.78-.621h3.358V180.8h-3.358a.786.786,0,0,1-.78-.621,16.186,16.186,0,0,0-2.228-5.363.773.773,0,0,1,.111-.987l2.371-2.371-4.169-4.169-2.371,2.371a.8.8,0,0,1-.987.111,16.528,16.528,0,0,0-5.363-2.228.786.786,0,0,1-.621-.78v-3.358h-5.888v3.358a.786.786,0,0,1-.621.78,16.187,16.187,0,0,0-5.363,2.228.773.773,0,0,1-.987-.111l-2.371-2.371-4.169,4.169,2.371,2.371a.8.8,0,0,1,.111.987,16.528,16.528,0,0,0-2.228,5.363.786.786,0,0,1-.78.621H88.791v5.888h3.358a.786.786,0,0,1,.78.621,16.186,16.186,0,0,0,2.228,5.363.773.773,0,0,1-.111.987l-2.371,2.371,4.169,4.169,2.371-2.371a.8.8,0,0,1,.987-.111,16.528,16.528,0,0,0,5.363,2.228.786.786,0,0,1,.621.78Z" transform="translate(-87.2 -161.8)" fill="#20849e"/>
      </g>
      <g id="Grupo_1192278" data-name="Grupo 1192278" transform="translate(31.092 43.016)">
        <path id="Trazado_1094234" data-name="Trazado 1094234" d="M202.877,289.043a.746.746,0,0,1-.557-.239l-1.719-1.719a.817.817,0,0,1,0-1.13.788.788,0,0,1,1.13,0l1.162,1.162,3.978-3.979a.8.8,0,0,1,1.13,1.13L203.45,288.8A.808.808,0,0,1,202.877,289.043Z" transform="translate(-200.375 -282.9)" fill="#20849e"/>
      </g>
      <g id="Grupo_1192279" data-name="Grupo 1192279" transform="translate(5.522 17.983)">
        <path id="Trazado_1094235" data-name="Trazado 1094235" d="M46.861,127.191H40.5a.8.8,0,0,1,0-1.591h6.366a.788.788,0,0,1,.8.8A.8.8,0,0,1,46.861,127.191Z" transform="translate(-39.7 -125.6)" fill="#20849e"/>
      </g>
      <g id="Grupo_1192280" data-name="Grupo 1192280" transform="translate(5.522 22.057)">
        <path id="Trazado_1094236" data-name="Trazado 1094236" d="M46.861,152.791H40.5a.8.8,0,1,1,0-1.591h6.366a.788.788,0,0,1,.8.8A.8.8,0,0,1,46.861,152.791Z" transform="translate(-39.7 -151.2)" fill="#20849e"/>
      </g>
    </g>
  </g>
</svg>
