<svg xmlns="http://www.w3.org/2000/svg" width="124" height="124" viewBox="0 0 124 124">
  <g id="Grupo_1192289" data-name="Grupo 1192289" transform="translate(6983.859 9624.455)">
    <g id="Grupo_1192284" data-name="Grupo 1192284" transform="translate(-7377.207 -17585.906)">
      <g id="Grupo_1190808" data-name="Grupo 1190808" transform="translate(-708.875 4775)">
        <circle id="Elipse_11474" data-name="Elipse 11474" cx="62" cy="62" r="62" transform="translate(1102.223 3186.452)" fill="#fff"/>
      </g>
    </g>
    <g id="prueba" transform="translate(-6956.5 -9593.615)">
      <path id="Trazado_1094237" data-name="Trazado 1094237" d="M67.5,30.629H34.549a1.037,1.037,0,0,0,0,2.074H67.5a1.22,1.22,0,0,1,1.218,1.218v5.508H2.074V33.921A1.22,1.22,0,0,1,3.292,32.7H29.71a1.037,1.037,0,0,0,0-2.074H3.292A3.3,3.3,0,0,0,0,33.921V89.66a3.3,3.3,0,0,0,3.292,3.292H23.25a1.037,1.037,0,0,0,0-2.074H3.292A1.22,1.22,0,0,1,2.074,89.66V67.279H6.342a1.037,1.037,0,0,0,0-2.074H2.074V41.5H34.36V65.2H11.182a1.037,1.037,0,0,0,0,2.074H34.36v23.6h-6.27a1.037,1.037,0,0,0,0,2.074H67.5a3.3,3.3,0,0,0,3.292-3.292V33.921A3.3,3.3,0,0,0,67.5,30.629ZM68.719,89.66A1.22,1.22,0,0,1,67.5,90.879H36.434v-23.6H68.719Zm0-24.456H36.434V41.5H68.719Z" transform="translate(0 -30.629)" fill="#20849e"/>
      <path id="Trazado_1094238" data-name="Trazado 1094238" d="M70.056,143.466a9.846,9.846,0,1,0-9.846-9.846A9.857,9.857,0,0,0,70.056,143.466Zm0-2.074a7.762,7.762,0,0,1-6.148-3.025l2.735-1.579a4.649,4.649,0,0,0,6.825,0l2.735,1.579a7.762,7.762,0,0,1-6.148,3.025Zm1.037-15.473a7.767,7.767,0,0,1,6.151,10.653l-2.736-1.579a4.659,4.659,0,0,0-3.415-5.914Zm1.548,7.7a2.585,2.585,0,1,1-2.585-2.585A2.588,2.588,0,0,1,72.641,133.62Zm-10.357,0a7.782,7.782,0,0,1,6.735-7.7v3.159a4.659,4.659,0,0,0-3.415,5.914l-2.735,1.579A7.725,7.725,0,0,1,62.284,133.62Z" transform="translate(-51.885 -110.895)" fill="#20849e"/>
      <path id="Trazado_1094239" data-name="Trazado 1094239" d="M299.6,143.463h21.087a1.037,1.037,0,0,0,1.037-1.037v-6.389a1.037,1.037,0,1,0-2.074,0v5.352h-3.2V125.844h3.2V131.2a1.037,1.037,0,1,0,2.074,0v-6.39a1.037,1.037,0,0,0-1.037-1.037h-5.272a1.037,1.037,0,0,0-1.037,1.037v2.857h-4.234a1.037,1.037,0,0,0-1.037,1.037v2.856h-4.235a1.037,1.037,0,0,0-1.037,1.037v2.741H299.6a1.037,1.037,0,0,0-1.037,1.037v6.053A1.037,1.037,0,0,0,299.6,143.463Zm11.581-13.724h3.2v11.651h-3.2Zm-5.272,3.893h3.2v7.757h-3.2Zm-5.272,3.778h3.2v3.979h-3.2Z" transform="translate(-257.282 -110.891)" fill="#20849e"/>
      <path id="Trazado_1094240" data-name="Trazado 1094240" d="M65.958,345.338a3.165,3.165,0,0,0-4.907-2.644l-2.059-2.059a3.167,3.167,0,1,0-5.7,0l-1.854,1.854a3.163,3.163,0,0,0-2.764,0l-1.854-1.854a3.167,3.167,0,1,0-1.466,1.467l1.854,1.854a3.167,3.167,0,1,0,5.7,0l1.854-1.854a3.163,3.163,0,0,0,2.764,0l2.256,2.256a3.167,3.167,0,1,0,6.177.981Zm-21.985-4.992a1.093,1.093,0,1,1,1.093-1.093A1.094,1.094,0,0,1,43.973,340.346Zm6.085,6.085a1.093,1.093,0,1,1,1.093-1.093A1.094,1.094,0,0,1,50.058,346.431Zm6.085-6.085a1.093,1.093,0,1,1,1.093-1.093A1.094,1.094,0,0,1,56.143,340.346Zm5.555,4.992a1.093,1.093,0,1,1,1.093,1.093A1.094,1.094,0,0,1,61.7,345.338Z" transform="translate(-35.164 -293.851)" fill="#20849e"/>
      <path id="Trazado_1094241" data-name="Trazado 1094241" d="M298.928,332.774h16.9a3.243,3.243,0,1,0,0-6.487h-16.9a3.243,3.243,0,0,0,0,6.487Zm4.576-4.413h12.322a1.169,1.169,0,1,1,0,2.339H303.5Zm-4.576,0h2.5V330.7h-2.5a1.169,1.169,0,0,1,0-2.339Z" transform="translate(-254.801 -285.407)" fill="#20849e"/>
      <path id="Trazado_1094242" data-name="Trazado 1094242" d="M298.928,397.37h16.9a3.243,3.243,0,1,0,0-6.487h-16.9a3.243,3.243,0,0,0,0,6.487Zm14.535-4.413h2.364a1.169,1.169,0,1,1,0,2.339h-2.364Zm-14.535,0h12.461V395.3H298.928a1.169,1.169,0,0,1,0-2.339Z" transform="translate(-254.801 -341.071)" fill="#20849e"/>
      <g id="Grupo_1192281" data-name="Grupo 1192281" transform="translate(4.78 4.401)">
        <ellipse id="Elipse_13746" data-name="Elipse 13746" cx="1.037" cy="1.037" rx="1.037" ry="1.037" fill="#20849e"/>
        <ellipse id="Elipse_13747" data-name="Elipse 13747" cx="1.037" cy="1.037" rx="1.037" ry="1.037" transform="translate(4.718)" fill="#20849e"/>
        <ellipse id="Elipse_13748" data-name="Elipse 13748" cx="1.037" cy="1.037" rx="1.037" ry="1.037" transform="translate(9.436)" fill="#20849e"/>
      </g>
    </g>
  </g>
</svg>
