<svg xmlns="http://www.w3.org/2000/svg" width="124" height="124" viewBox="0 0 124 124">
  <g id="Grupo_1192288" data-name="Grupo 1192288" transform="translate(7171.859 9465.455)">
    <g id="Grupo_1192285" data-name="Grupo 1192285" transform="translate(-7565.207 -17426.906)">
      <g id="Grupo_1190808" data-name="Grupo 1190808" transform="translate(-708.875 4775)">
        <circle id="Elipse_11474" data-name="Elipse 11474" cx="62" cy="62" r="62" transform="translate(1102.223 3186.452)" fill="#fff"/>
      </g>
    </g>
    <g id="desarrollador-de-software_1_" data-name="desarrollador-de-software (1)" transform="translate(-7141.356 -9439.97)">
      <path id="Trazado_1094207" data-name="Trazado 1094207" d="M10.712,11.178V42.732L6.1,53.105a1.178,1.178,0,0,0,1.077,1.656h4.688v8.245a7.791,7.791,0,0,0,3.557,6.542V72.43h2.356V68.9a1.178,1.178,0,0,0-.589-1.021,5.56,5.56,0,0,1-2.968-4.868V53.583a.589.589,0,1,1,1.178,0v3.534h2.356v-5.89a.589.589,0,1,1,1.178,0v5.89h2.356V48.872a.589.589,0,1,1,1.178,0v8.245h2.356v-5.9A.589.589,0,1,1,26,51.227v9.423a1.178,1.178,0,0,0,1.939.9l1.787-1.512a1.187,1.187,0,0,0,.2-.211.9.9,0,0,1,.74-.382.9.9,0,0,1,.88.616.974.974,0,0,1,0,.634l-3.206,5.562a2.571,2.571,0,0,1-2.311,1.461A1.178,1.178,0,0,0,24.847,68.9V72.43H27.2v-2.5a4.845,4.845,0,0,0,3.211-2.568l3.209-5.573a3.326,3.326,0,0,0,.163-2.45,3.28,3.28,0,0,0-5.428-1.3V54.761H42.539v3.283a3.28,3.28,0,0,0-5.43,1.311,3.355,3.355,0,0,0,.208,2.522L40.446,67.3a4.923,4.923,0,0,0,3.248,2.637v2.5h2.356V68.9a1.178,1.178,0,0,0-1.178-1.178,2.614,2.614,0,0,1-2.349-1.531L39.4,60.775a.959.959,0,0,1-.049-.707.923.923,0,0,1,1.622-.243,1.188,1.188,0,0,0,.2.211l1.787,1.512a1.178,1.178,0,0,0,1.939-.9V51.227a.589.589,0,1,1,1.178-.014v5.9h2.356V48.872a.589.589,0,1,1,1.178,0v8.245h2.356v-5.89a.589.589,0,1,1,1.178,0v5.89H55.5V53.583a.589.589,0,1,1,1.178,0v9.423a5.56,5.56,0,0,1-2.968,4.868,1.178,1.178,0,0,0-.589,1.021V72.43h2.356V69.549a7.791,7.791,0,0,0,3.557-6.542V54.761h4.688a1.178,1.178,0,0,0,1.077-1.656l-4.61-10.373V31.2H57.828V41.8H13.068V12.356h34.16V10H11.89a1.178,1.178,0,0,0-1.178,1.178ZM58.241,44.16l3.664,8.245H58.78a2.915,2.915,0,0,0-3.338-1.692,2.945,2.945,0,0,0-2.893-2.431,2.884,2.884,0,0,0-.642.075,2.937,2.937,0,0,0-5.785,0,2.928,2.928,0,0,0-3.583,2.869v1.178H28.357V51.227a2.928,2.928,0,0,0-3.583-2.871,2.937,2.937,0,0,0-5.785,0,2.884,2.884,0,0,0-.642-.075,2.945,2.945,0,0,0-2.893,2.431,2.915,2.915,0,0,0-3.338,1.693H8.991l3.665-8.245Z" transform="translate(-6 0.601)" fill="#20849e"/>
      <path id="Trazado_1094208" data-name="Trazado 1094208" d="M26.961,20.643l-5.89,3.534a1.178,1.178,0,0,0,0,2.019l5.89,3.534,1.213-2.019-4.206-2.524,4.206-2.524Z" transform="translate(-3.42 2.495)" fill="#20849e"/>
      <path id="Trazado_1094209" data-name="Trazado 1094209" d="M36.2,29.73l5.89-3.534a1.178,1.178,0,0,0,0-2.019L36.2,20.643l-1.213,2.019,4.206,2.524-4.206,2.524Z" transform="translate(-0.843 2.495)" fill="#20849e"/>
      <path id="Trazado_1094210" data-name="Trazado 1094210" d="M0,0H10.064V2.357H0Z" transform="translate(26.565 31.987) rotate(-69.444)" fill="#20849e"/>
      <path id="Trazado_1094211" data-name="Trazado 1094211" d="M43.4,13.345a8.9,8.9,0,0,0,4.319,7.62v3.623a4.633,4.633,0,1,0,9.266,0V20.965A8.949,8.949,0,1,0,43.4,13.345ZM54.629,24.588a2.277,2.277,0,1,1-4.554,0V23.175h4.554ZM52.148,6.72h.206a6.6,6.6,0,0,1,2.928,12.5,1.178,1.178,0,0,0-.654,1.054v.55H50.075v-.55a1.178,1.178,0,0,0-.654-1.054,6.563,6.563,0,0,1-3.666-5.883A6.714,6.714,0,0,1,52.148,6.72Z" transform="translate(0.654 -0.402)" fill="#20849e"/>
      <path id="Trazado_1094212" data-name="Trazado 1094212" d="M50,1h2.356V3.591H50Z" transform="translate(1.829 -1)" fill="#20849e"/>
      <path id="Trazado_1094213" data-name="Trazado 1094213" d="M0,0H2.356V2.591H0Z" transform="translate(43.005 4.632) rotate(-45)" fill="#20849e"/>
      <path id="Trazado_1094214" data-name="Trazado 1094214" d="M0,0H2.591V2.356H0Z" transform="translate(59.496 4.802) rotate(-45)" fill="#20849e"/>
    </g>
  </g>
</svg>
