<svg xmlns="http://www.w3.org/2000/svg" width="124" height="124" viewBox="0 0 124 124">
  <g id="Grupo_1192287" data-name="Grupo 1192287" transform="translate(7040.859 9465.455)">
    <g id="Grupo_1192286" data-name="Grupo 1192286" transform="translate(-7434.207 -17426.906)">
      <g id="Grupo_1190808" data-name="Grupo 1190808" transform="translate(-708.875 4775)">
        <circle id="Elipse_11474" data-name="Elipse 11474" cx="62" cy="62" r="62" transform="translate(1102.223 3186.452)" fill="#fff"/>
      </g>
    </g>
    <g id="servicio-de-almacenamiento-en-la-nube" transform="translate(-7014.508 -9437.344)">
      <path id="Trazado_1094292" data-name="Trazado 1094292" d="M64.821,17.072A17.341,17.341,0,0,0,48.5,5.389a17.143,17.143,0,0,0-14.814,8.424A16.622,16.622,0,0,0,11.466,27.88,9.716,9.716,0,0,0,13.72,47.048H59.9a15.391,15.391,0,0,0,4.916-29.976ZM59.9,44.5H13.72C4.8,44.293,3.991,31.515,12.829,30.22a1.274,1.274,0,0,0,1.12-1.226A14.076,14.076,0,0,1,33.743,16.579a1.271,1.271,0,0,0,1.651-.589C41.3,4.176,58.859,5.835,62.588,18.452a1.272,1.272,0,0,0,.872.863A12.844,12.844,0,0,1,59.9,44.5Z" transform="translate(-3.999 -5.389)" fill="#20849e"/>
      <path id="Trazado_1094293" data-name="Trazado 1094293" d="M28.234,40.111a1.273,1.273,0,0,0-1.273,1.273V45.2H14.229a2.549,2.549,0,0,0-2.546,2.546v7.21a4.456,4.456,0,1,0,2.546,0V47.75H26.96A2.549,2.549,0,0,0,29.507,45.2V41.384a1.273,1.273,0,0,0-1.273-1.273Zm-13.368,19.1a1.91,1.91,0,1,1-1.91-1.91,1.91,1.91,0,0,1,1.91,1.91Z" transform="translate(-2.77 4.095)" fill="#20849e"/>
      <path id="Trazado_1094294" data-name="Trazado 1094294" d="M56.824,54.96V47.75A2.549,2.549,0,0,0,54.278,45.2H41.546V41.384a1.273,1.273,0,1,0-2.546,0V45.2a2.549,2.549,0,0,0,2.546,2.546H54.277v7.21a4.445,4.445,0,1,0,2.546,0Zm-1.273,6.158a1.91,1.91,0,1,1,1.91-1.91,1.91,1.91,0,0,1-1.91,1.91Z" transform="translate(5.56 4.095)" fill="#20849e"/>
      <path id="Trazado_1094295" data-name="Trazado 1094295" d="M34.227,54.96V41.384a1.273,1.273,0,1,0-2.547,0V54.96a4.445,4.445,0,1,0,2.546,0Zm-1.273,6.158a1.91,1.91,0,1,1,1.91-1.91,1.91,1.91,0,0,1-1.91,1.91Z" transform="translate(2.695 4.095)" fill="#20849e"/>
    </g>
  </g>
</svg>
