<svg id="surface1" xmlns="http://www.w3.org/2000/svg" width="84" height="83.918" viewBox="0 0 84 83.918">
  <path id="Trazado_1094299" data-name="Trazado 1094299" d="M357.483,16.218a7.749,7.749,0,0,0,1.815-4.99V0H343.728V11.227a7.748,7.748,0,0,0,1.815,4.99,14.338,14.338,0,0,0-8.371,13.039V52.285a4.1,4.1,0,0,0,4.1,4.1,4.15,4.15,0,0,0,.492-.03V83.836h2.458V55.126a4.07,4.07,0,0,0,1.147-2.841V49.171h12.293v3.114a4.084,4.084,0,0,0,1.148,2.84V83.836h2.458V56.352a4.123,4.123,0,0,0,.492.03,4.1,4.1,0,0,0,4.1-4.1V29.256A14.425,14.425,0,0,0,357.483,16.218Zm-11.3-13.759H356.84V5.9H346.186Zm0,5.9H356.84v2.869a5.327,5.327,0,0,1-10.654,0Zm-3.278,43.926a1.639,1.639,0,1,1-3.278,0V49.171h3.278Zm0-5.572H339.63V44.09h3.278ZM363.4,52.285a1.639,1.639,0,1,1-3.278,0V49.171H363.4Zm0-5.572h-3.278V44.09H363.4Zm0-5.081h-3.278V28.273h-2.459V46.712H345.367V28.273h-2.458V41.632H339.63V29.256A11.885,11.885,0,0,1,347.689,18a7.759,7.759,0,0,0,7.651,0A11.943,11.943,0,0,1,363.4,29.256Zm0,0" transform="translate(-281.855)" fill="#20849e"/>
  <path id="Trazado_1094300" data-name="Trazado 1094300" d="M417.094,329.18h2.458v29.83h-2.458Zm0,0" transform="translate(-348.665 -275.174)" fill="#20849e"/>
  <path id="Trazado_1094301" data-name="Trazado 1094301" d="M153.194,283.873a5.047,5.047,0,0,0-4.21-1.045l-9.318,1.882a4.114,4.114,0,0,0,.814,8.147h9.506a5.065,5.065,0,0,0,3.208-8.984Zm-3.207,6.525h-9.507a1.655,1.655,0,0,1-.327-3.277l9.318-1.883a2.645,2.645,0,0,1,.52-.052,2.606,2.606,0,0,1,0,5.212Zm0,0" transform="translate(-113.994 -236.342)" fill="#20849e"/>
  <path id="Trazado_1094302" data-name="Trazado 1094302" d="M0,300.039H18.03V302.5H0Zm0,0" transform="translate(0 -250.814)" fill="#20849e"/>
  <path id="Trazado_1094303" data-name="Trazado 1094303" d="M0,331.676H18.03v2.458H0Zm0,0" transform="translate(0 -277.26)" fill="#20849e"/>
  <path id="Trazado_1094304" data-name="Trazado 1094304" d="M0,362.645H18.03V365.1H0Zm0,0" transform="translate(0 -303.149)" fill="#20849e"/>
  <path id="Trazado_1094305" data-name="Trazado 1094305" d="M45.565,109.556h-9L29.507,98.9H0v2.459H28.187l11.85,17.893-4.858,3.414H0v2.458H35.955l5.439-3.822,2.613,3.946v19.79a3.692,3.692,0,0,1-3.687,3.687H0v2.459H22.045v6.966a8.441,8.441,0,0,0,16.883,0v-6.966H40.32a6.153,6.153,0,0,0,6.146-6.147v-20.53l-3.934-5.94h3.033a4.507,4.507,0,1,0,0-9.014Zm-9.1,48.6a5.982,5.982,0,1,1-11.964,0v-6.966H36.468Zm9.1-42.041H40.9l-2.713-4.1h7.374a2.049,2.049,0,0,1,0,4.1Zm0,0" transform="translate(0 -82.676)" fill="#20849e"/>
  <path id="Trazado_1094306" data-name="Trazado 1094306" d="M29.164,166.525l5.1-5.1L36,163.165l-5.1,5.1Zm0,0" transform="translate(-24.379 -134.942)" fill="#20849e"/>
  <path id="Trazado_1094307" data-name="Trazado 1094307" d="M70.844,141.969l1.739-1.739,1.739,1.739-1.739,1.739Zm0,0" transform="translate(-59.221 -117.224)" fill="#20849e"/>
  <path id="Trazado_1094308" data-name="Trazado 1094308" d="M83.113,166.525l5.1-5.1,1.739,1.739-5.1,5.1Zm0,0" transform="translate(-69.478 -134.942)" fill="#20849e"/>
  <path id="Trazado_1094309" data-name="Trazado 1094309" d="M124.793,141.972l1.738-1.738,1.739,1.738-1.738,1.739Zm0,0" transform="translate(-104.319 -117.227)" fill="#20849e"/>
  <path id="Trazado_1094310" data-name="Trazado 1094310" d="M226.777,367.641h2.459V370.1h-2.459Zm0,0" transform="translate(-189.571 -307.325)" fill="#20849e"/>
  <path id="Trazado_1094311" data-name="Trazado 1094311" d="M419.09,158.344h2.458v14.1H419.09Zm0,0" transform="translate(-350.333 -132.366)" fill="#20849e"/>
  <path id="Trazado_1094312" data-name="Trazado 1094312" d="M419.09,128.375h2.458v2.458H419.09Zm0,0" transform="translate(-350.333 -107.313)" fill="#20849e"/>
</svg>
