<svg xmlns="http://www.w3.org/2000/svg" width="68.213" height="70.666" viewBox="0 0 68.213 70.666">
  <g id="llave-del-hotel" transform="translate(-12.041 -4.8)">
    <g id="Grupo_1192314" data-name="Grupo 1192314" transform="translate(51.405 18.984)">
      <path id="Trazado_1094322" data-name="Trazado 1094322" d="M272.624,122.349a14.424,14.424,0,1,1,14.424-14.424A14.438,14.438,0,0,1,272.624,122.349Zm0-27.233a12.825,12.825,0,1,0,12.825,12.825A12.844,12.844,0,0,0,272.624,95.115Z" transform="translate(-258.2 -93.5)" fill="#7d8c48"/>
    </g>
    <g id="Grupo_1192315" data-name="Grupo 1192315" transform="translate(60.056 45.316)">
      <path id="Trazado_1094323" data-name="Trazado 1094323" d="M317.177,288.308a.826.826,0,0,1-.528-.192l-4.062-3.47a.816.816,0,0,1-.288-.608V278.6a.792.792,0,0,1,.8-.8h1.535a.372.372,0,0,0,.368-.368v-2.079a.372.372,0,0,0-.368-.368H313.1a.792.792,0,0,1-.8-.8v-3.518a.792.792,0,0,1,.8-.8h1.535A.372.372,0,0,0,315,269.5v-2.079a.372.372,0,0,0-.368-.368H313.1a.792.792,0,0,1-.8-.8v-7.308a.784.784,0,0,1,.352-.656.8.8,0,0,1,.736-.08,12.863,12.863,0,0,0,7.98.448.761.761,0,0,1,.688.144.835.835,0,0,1,.32.64V284.07a.788.788,0,0,1-.3.624l-4.414,3.47A.884.884,0,0,1,317.177,288.308Zm-3.262-4.622,3.278,2.8,3.6-2.814V260.419a14.1,14.1,0,0,1-2.719.256,14.532,14.532,0,0,1-4.158-.608v5.389h.736a1.966,1.966,0,0,1,1.967,1.967V269.5a1.966,1.966,0,0,1-1.967,1.967h-.736v1.919h.736a1.966,1.966,0,0,1,1.967,1.967v2.079a1.966,1.966,0,0,1-1.967,1.967h-.736Z" transform="translate(-312.3 -258.157)" fill="#7d8c48"/>
    </g>
    <g id="Grupo_1192316" data-name="Grupo 1192316" transform="translate(60.584 22.662)">
      <path id="Trazado_1094324" data-name="Trazado 1094324" d="M321.085,127.47a5.485,5.485,0,1,1,5.485-5.485A5.494,5.494,0,0,1,321.085,127.47Zm0-9.387a3.886,3.886,0,1,0,3.886,3.886A3.89,3.89,0,0,0,321.085,118.083Z" transform="translate(-315.6 -116.5)" fill="#7d8c48"/>
    </g>
    <g id="Grupo_1192317" data-name="Grupo 1192317" transform="translate(65.989 46.202)">
      <path id="Trazado_1094325" data-name="Trazado 1094325" d="M350.2,283.417a.792.792,0,0,1-.8-.8V264.5a.8.8,0,0,1,1.6,0v18.118A.792.792,0,0,1,350.2,283.417Z" transform="translate(-349.4 -263.7)" fill="#7d8c48"/>
    </g>
    <g id="Grupo_1192318" data-name="Grupo 1192318" transform="translate(59.145 35.728)">
      <path id="Trazado_1094326" data-name="Trazado 1094326" d="M318.578,199.8H307.4a.8.8,0,1,1,0-1.6h11.178a.8.8,0,1,1,0,1.6Z" transform="translate(-306.6 -198.2)" fill="#7d8c48"/>
    </g>
    <g id="Grupo_1192319" data-name="Grupo 1192319" transform="translate(58.777 39.693)">
      <path id="Trazado_1094327" data-name="Trazado 1094327" d="M316.645,224.6H305.1a.8.8,0,0,1,0-1.6h11.546a.8.8,0,1,1,0,1.6Z" transform="translate(-304.3 -223)" fill="#7d8c48"/>
    </g>
    <g id="Grupo_1192320" data-name="Grupo 1192320" transform="translate(45.344 4.8)">
      <path id="Trazado_1094328" data-name="Trazado 1094328" d="M233.541,31.282A13.257,13.257,0,0,1,220.3,18.041a12.589,12.589,0,0,1,.064-1.343.8.8,0,1,1,1.6.16,9.608,9.608,0,0,0-.064,1.183,11.647,11.647,0,0,0,21.541,6.141.8.8,0,1,1,1.359.848A13.2,13.2,0,0,1,233.541,31.282Zm12.17-9.771a.656.656,0,0,1-.176-.016.8.8,0,0,1-.608-.943,11.954,11.954,0,0,0,.272-2.511,11.648,11.648,0,0,0-21.62-6.013A.8.8,0,1,1,222.2,11.2a13.257,13.257,0,0,1,24.291,9.691A.817.817,0,0,1,245.71,21.511Z" transform="translate(-220.3 -4.8)" fill="#7d8c48"/>
    </g>
    <g id="Grupo_1192321" data-name="Grupo 1192321" transform="translate(12.041 9.827)">
      <path id="Trazado_1094329" data-name="Trazado 1094329" d="M38.1,90.521a.722.722,0,0,1-.4-.112L12.434,75.825a.778.778,0,0,1-.368-.48.81.81,0,0,1,.08-.608l19-32.926a.768.768,0,0,1,.5-.368l19.829-5.181a.807.807,0,0,1,.975.56l3.822,13.913a.8.8,0,1,1-1.535.416L51.117,38,32.359,42.9,13.921,74.833,37.812,88.618,52.2,63.687a.8.8,0,0,1,1.375.8L38.788,90.1a.839.839,0,0,1-.48.368.333.333,0,0,1-.208.048Z" transform="translate(-12.041 -36.235)" fill="#7d8c48"/>
    </g>
    <g id="Grupo_1192322" data-name="Grupo 1192322" transform="translate(26.972 33.123)">
      <path id="Trazado_1094330" data-name="Trazado 1094330" d="M121.9,192.56a.722.722,0,0,1-.4-.112L105.809,183.4a.8.8,0,1,1,.8-1.375l15.688,9.051a.8.8,0,0,1-.4,1.487Z" transform="translate(-105.411 -181.911)" fill="#7d8c48"/>
    </g>
    <g id="Grupo_1192323" data-name="Grupo 1192323" transform="translate(23.502 39.119)">
      <path id="Trazado_1094331" data-name="Trazado 1094331" d="M100.2,230.06a.722.722,0,0,1-.4-.112L84.109,220.9a.8.8,0,0,1,.8-1.375l15.688,9.051a.789.789,0,0,1,.288,1.087.773.773,0,0,1-.688.4Z" transform="translate(-83.711 -219.411)" fill="#7d8c48"/>
    </g>
    <g id="Grupo_1192324" data-name="Grupo 1192324" transform="translate(20.048 45.116)">
      <path id="Trazado_1094332" data-name="Trazado 1094332" d="M78.6,267.56a.722.722,0,0,1-.4-.112L62.509,258.4a.8.8,0,0,1,.8-1.375L79,266.072a.789.789,0,0,1,.288,1.087A.827.827,0,0,1,78.6,267.56Z" transform="translate(-62.111 -256.911)" fill="#7d8c48"/>
    </g>
    <g id="Grupo_1192325" data-name="Grupo 1192325" transform="translate(40.594 15.929)">
      <path id="Trazado_1094333" data-name="Trazado 1094333" d="M195.666,84.567a4.924,4.924,0,0,1-2.527-.688,5.059,5.059,0,0,1-2.367-3.086,5.069,5.069,0,1,1,6.2,3.6A5.181,5.181,0,0,1,195.666,84.567Zm.016-8.555a3.581,3.581,0,0,0-.912.128,3.374,3.374,0,1,0,.912-.128Z" transform="translate(-190.596 -74.396)" fill="#7d8c48"/>
    </g>
  </g>
</svg>
