<svg xmlns="http://www.w3.org/2000/svg" width="69.309" height="48.218" viewBox="0 0 69.309 48.218">
  <g id="Online_Ticket" data-name="Online Ticket" transform="translate(-3.972 -12.5)">
    <path id="Trazado_1094337" data-name="Trazado 1094337" d="M42.794,28.691a1.236,1.236,0,0,1-1.236-1.236V26.218a1.236,1.236,0,1,1,2.473,0v1.236a1.236,1.236,0,0,1-1.236,1.236Z" transform="translate(8.886 2.951)" fill="#7d8c48"/>
    <path id="Trazado_1094338" data-name="Trazado 1094338" d="M42.794,24.691a1.236,1.236,0,0,1-1.236-1.236V22.218a1.236,1.236,0,0,1,2.473,0v1.236a1.236,1.236,0,0,1-1.236,1.236Z" transform="translate(8.886 2.005)" fill="#7d8c48"/>
    <path id="Trazado_1094339" data-name="Trazado 1094339" d="M42.794,20.691a1.236,1.236,0,0,1-1.236-1.236V18.218a1.236,1.236,0,1,1,2.473,0v1.236a1.236,1.236,0,0,1-1.236,1.236Z" transform="translate(8.886 1.059)" fill="#7d8c48"/>
    <path id="Trazado_1094340" data-name="Trazado 1094340" d="M72.535,57.339a2.552,2.552,0,0,0,0-3.607L68.05,49.248l3.172-1.229a2.55,2.55,0,0,0-.025-4.766l-.554-.209a3.94,3.94,0,0,0,.149-1.021V34.067A1.369,1.369,0,0,0,69.461,32.7a3.48,3.48,0,0,1-.013-6.954,1.372,1.372,0,0,0,1.344-1.363V16.43a3.921,3.921,0,0,0-3.9-3.93H7.873a3.92,3.92,0,0,0-3.9,3.93v7.957A1.369,1.369,0,0,0,5.3,25.75,3.48,3.48,0,0,1,5.314,32.7a1.372,1.372,0,0,0-1.343,1.363v7.957a3.92,3.92,0,0,0,3.9,3.93H51.044l4.77,12.683a2.531,2.531,0,0,0,2.375,1.652H58.2A2.533,2.533,0,0,0,60.58,58.66l1.23-3.171,4.483,4.483a2.556,2.556,0,0,0,3.608,0ZM7.873,43.482a1.445,1.445,0,0,1-1.428-1.457V35.05a5.966,5.966,0,0,0,0-11.643V16.43a1.445,1.445,0,0,1,1.428-1.457h42.57v.6a1.236,1.236,0,1,0,2.473,0v-.6H66.889a1.445,1.445,0,0,1,1.43,1.457V23.4a5.965,5.965,0,0,0,0,11.643v6.977a1.149,1.149,0,0,1-.026.136L52.539,36.235a1.229,1.229,0,0,0,.377-.885V34.114a1.236,1.236,0,0,0-2.473,0v1.236a1.233,1.233,0,0,0,.1.484,2.527,2.527,0,0,0-2.023,3.41l1.594,4.237ZM68.042,58.224,62.217,52.4a1.236,1.236,0,0,0-.874-.362,1.218,1.218,0,0,0-.255.027,1.235,1.235,0,0,0-.9.763l-1.916,4.94h-.146L53.04,44.24l0,0-2.2-5.861.1-.1L68.6,44.916l.015.006,1.716.645,0,.146-4.941,1.915a1.237,1.237,0,0,0-.427,2.027l5.826,5.936Z" transform="translate(0 0)" fill="#7d8c48"/>
    <path id="Trazado_1094341" data-name="Trazado 1094341" d="M22.6,37.271a1.335,1.335,0,0,1-1.34-.028l-.084-.051a1.359,1.359,0,0,1-.554-1.327l.86-5.275-3.641-3.73a1.335,1.335,0,0,1-.342-1.25l.027-.111a1.341,1.341,0,0,1,1.072-.916l4.983-.761,2.193-4.671a1.517,1.517,0,0,1,1.271-.869,1.348,1.348,0,0,1,1.21.776L30.5,23.822l4.878.744a1.518,1.518,0,0,1,1.176.928,1.349,1.349,0,0,1-.319,1.373L32.6,30.591l.861,5.275a1.36,1.36,0,0,1-.555,1.326,1.335,1.335,0,0,1-1.335.119l-.088-.041-4.438-2.452ZM21.14,26.7,24.1,29.728l-.088.735-.574,3.522,3.534-1.952.689.3,2.982,1.647-.675-4.14L30.4,29.3l2.539-2.6L28.9,26.079l-.369-.636-1.485-3.161L25.293,26l-.723.17Z" transform="translate(3.19 1.367)" fill="#7d8c48"/>
  </g>
</svg>
