<svg xmlns="http://www.w3.org/2000/svg" xmlns:xlink="http://www.w3.org/1999/xlink" width="88.348" height="88.348" viewBox="0 0 88.348 88.348">
  <defs>
    <filter id="Elipse_13737" x="0" y="0" width="88.348" height="88.348" filterUnits="userSpaceOnUse">
      <feOffset dy="3" input="SourceAlpha"/>
      <feGaussianBlur stdDeviation="3" result="blur"/>
      <feFlood flood-opacity="0.161"/>
      <feComposite operator="in" in2="blur"/>
      <feComposite in="SourceGraphic"/>
    </filter>
  </defs>
  <g id="Grupo_1191339" data-name="Grupo 1191339" transform="translate(-177 -4842)">
    <g id="Grupo_1190317" data-name="Grupo 1190317" transform="translate(186 4848)">
      <g transform="matrix(1, 0, 0, 1, -9, -6)" filter="url(#Elipse_13737)">
        <circle id="Elipse_13737-2" data-name="Elipse 13737" cx="35.174" cy="35.174" r="35.174" transform="translate(9 6)" fill="#fff"/>
      </g>
    </g>
    <path id="pulgares-hacia-arriba" d="M50.923,29.128a3.937,3.937,0,0,0-3.852-4.45H35.139c2.755-9.528-1.483-16.42-6.183-15.268-2.958,1.2-2.681,3.188-2.009,8,.534,3.852-3.566,7.961-4.626,8.947h-9.73A3.034,3.034,0,0,0,9.56,29.386V48.174a3.034,3.034,0,0,0,3.031,3.032h30.9a3.881,3.881,0,0,0,3.078-6.183,4.036,4.036,0,0,0,1.52-6.1c2.46-1.014,3-4.782,1.152-6.616a3.856,3.856,0,0,0,1.686-3.188ZM11.394,48.174V29.386A1.192,1.192,0,0,1,12.582,28.2h9.159V49.372H12.582a1.192,1.192,0,0,1-1.189-1.189ZM49.08,29.128a2.013,2.013,0,0,1-2.009,2.009H41.4a.922.922,0,0,0,0,1.843h5.068a2.013,2.013,0,0,1,2.009,2.009,2.1,2.1,0,0,1-2.009,2.451H40.861a.922.922,0,0,0,0,1.843h4.192a2.1,2.1,0,0,1,0,4.2H39.617a.921.921,0,1,0,0,1.843H43.5a2.009,2.009,0,0,1,0,4.017H23.6V27.663c1.281-1.189,5.833-5.8,5.169-10.532-.719-5.178-.562-5.446.875-6.035,2.967-.2,6.275,5.013,3.382,14.208a.932.932,0,0,0,.885,1.2H47.071A2.013,2.013,0,0,1,49.08,28.51v.6Z" transform="translate(191.156 4850.968)" fill="#c5a07a"/>
  </g>
</svg>
