<svg id="folleto" xmlns="http://www.w3.org/2000/svg" width="75.611" height="75.611" viewBox="0 0 75.611 75.611">
  <g id="Grupo_1192659" data-name="Grupo 1192659" transform="translate(0)">
    <g id="Grupo_1192658" data-name="Grupo 1192658">
      <path id="Trazado_1094600" data-name="Trazado 1094600" d="M74.351,0H28.984a1.26,1.26,0,0,0-1.26,1.26V12.6H1.26A1.26,1.26,0,0,0,0,13.862V74.351a1.26,1.26,0,0,0,1.26,1.26H46.627a1.26,1.26,0,0,0,1.26-1.26V63.009H74.351a1.26,1.26,0,0,0,1.26-1.26V1.26A1.26,1.26,0,0,0,74.351,0ZM30.245,3.709,42.694,12.6H30.245ZM45.367,73.091H2.52V15.122H45.367Zm27.724-12.6h-25.2V13.862a1.236,1.236,0,0,0-.541-1.008l.013-.019L32.917,2.52H73.091Z" transform="translate(0)" fill="#fec190"/>
    </g>
  </g>
  <g id="Grupo_1192661" data-name="Grupo 1192661" transform="translate(51.668 6.301)">
    <g id="Grupo_1192660" data-name="Grupo 1192660">
      <path id="Trazado_1094601" data-name="Trazado 1094601" d="M344.382,40H329.26A1.26,1.26,0,0,0,328,41.26v7.561a1.26,1.26,0,0,0,1.26,1.26h15.122a1.26,1.26,0,0,0,1.26-1.26V41.26A1.26,1.26,0,0,0,344.382,40Zm-1.26,7.561h-12.6V42.52h12.6Z" transform="translate(-328 -40)" fill="#fec190"/>
    </g>
  </g>
  <g id="Grupo_1192663" data-name="Grupo 1192663" transform="translate(51.575 18.875)">
    <g id="Grupo_1192662" data-name="Grupo 1192662" transform="translate(0 0)">
      <rect id="Rectángulo_460569" data-name="Rectángulo 460569" width="3" height="3" transform="translate(-0.016 0.07)" fill="#fec190"/>
    </g>
  </g>
  <g id="Grupo_1192665" data-name="Grupo 1192665" transform="translate(56.483 18.875)">
    <g id="Grupo_1192664" data-name="Grupo 1192664" transform="translate(0 0)">
      <rect id="Rectángulo_460570" data-name="Rectángulo 460570" width="13" height="3" transform="translate(0.076 0.07)" fill="#fec190"/>
    </g>
  </g>
  <g id="Grupo_1192667" data-name="Grupo 1192667" transform="translate(51.575 23.783)">
    <g id="Grupo_1192666" data-name="Grupo 1192666" transform="translate(0 0)">
      <rect id="Rectángulo_460571" data-name="Rectángulo 460571" width="18" height="3" transform="translate(-0.016 0.162)" fill="#fec190"/>
    </g>
  </g>
  <g id="Grupo_1192669" data-name="Grupo 1192669" transform="translate(51.575 28.691)">
    <g id="Grupo_1192668" data-name="Grupo 1192668" transform="translate(0 0)">
      <rect id="Rectángulo_460572" data-name="Rectángulo 460572" width="18" height="3" transform="translate(-0.016 0.254)" fill="#fec190"/>
    </g>
  </g>
  <g id="Grupo_1192671" data-name="Grupo 1192671" transform="translate(51.668 36.545)">
    <g id="Grupo_1192670" data-name="Grupo 1192670">
      <path id="Trazado_1094602" data-name="Trazado 1094602" d="M344.382,232H329.26a1.26,1.26,0,0,0-1.26,1.26v7.561a1.26,1.26,0,0,0,1.26,1.26h15.122a1.26,1.26,0,0,0,1.26-1.26V233.26A1.26,1.26,0,0,0,344.382,232Zm-1.26,7.561h-12.6V234.52h12.6Z" transform="translate(-328 -232)" fill="#fec190"/>
    </g>
  </g>
  <g id="Grupo_1192673" data-name="Grupo 1192673" transform="translate(51.575 49.024)">
    <g id="Grupo_1192672" data-name="Grupo 1192672" transform="translate(0 0)">
      <rect id="Rectángulo_460573" data-name="Rectángulo 460573" width="3" height="3" transform="translate(-0.016 -0.079)" fill="#fec190"/>
    </g>
  </g>
  <g id="Grupo_1192675" data-name="Grupo 1192675" transform="translate(56.483 49.024)">
    <g id="Grupo_1192674" data-name="Grupo 1192674" transform="translate(0 0)">
      <rect id="Rectángulo_460574" data-name="Rectángulo 460574" width="13" height="3" transform="translate(0.076 -0.079)" fill="#fec190"/>
    </g>
  </g>
  <g id="Grupo_1192677" data-name="Grupo 1192677" transform="translate(51.575 53.932)">
    <g id="Grupo_1192676" data-name="Grupo 1192676" transform="translate(0 0)">
      <rect id="Rectángulo_460575" data-name="Rectángulo 460575" width="18" height="3" transform="translate(-0.016 0.013)" fill="#fec190"/>
    </g>
  </g>
  <g id="Grupo_1192679" data-name="Grupo 1192679" transform="translate(6.301 56.709)">
    <g id="Grupo_1192678" data-name="Grupo 1192678">
      <path id="Trazado_1094603" data-name="Trazado 1094603" d="M51.342,360H41.26A1.26,1.26,0,0,0,40,361.26v10.081a1.26,1.26,0,0,0,1.26,1.26H51.342a1.26,1.26,0,0,0,1.26-1.26V361.26A1.26,1.26,0,0,0,51.342,360Zm-1.26,10.081H42.52V362.52h7.561Z" transform="translate(-40 -360)" fill="#fec190"/>
    </g>
  </g>
  <g id="Grupo_1192681" data-name="Grupo 1192681" transform="translate(21.426 56.736)">
    <g id="Grupo_1192680" data-name="Grupo 1192680" transform="translate(0 0)">
      <rect id="Rectángulo_460576" data-name="Rectángulo 460576" width="3" height="3" transform="translate(0.133 0.208)" fill="#fec190"/>
    </g>
  </g>
  <g id="Grupo_1192683" data-name="Grupo 1192683" transform="translate(26.334 56.736)">
    <g id="Grupo_1192682" data-name="Grupo 1192682" transform="translate(0 0)">
      <rect id="Rectángulo_460577" data-name="Rectángulo 460577" width="15" height="3" transform="translate(0.225 0.208)" fill="#fec190"/>
    </g>
  </g>
  <g id="Grupo_1192685" data-name="Grupo 1192685" transform="translate(21.426 61.644)">
    <g id="Grupo_1192684" data-name="Grupo 1192684" transform="translate(0 0)">
      <rect id="Rectángulo_460578" data-name="Rectángulo 460578" width="20" height="3" transform="translate(0.133 0.301)" fill="#fec190"/>
    </g>
  </g>
  <g id="Grupo_1192687" data-name="Grupo 1192687" transform="translate(21.426 66.552)">
    <g id="Grupo_1192686" data-name="Grupo 1192686" transform="translate(0 0)">
      <rect id="Rectángulo_460579" data-name="Rectángulo 460579" width="20" height="2" transform="translate(0.133 0.393)" fill="#fec190"/>
    </g>
  </g>
  <g id="Grupo_1192689" data-name="Grupo 1192689" transform="translate(7.561 20.163)">
    <g id="Grupo_1192688" data-name="Grupo 1192688">
      <path id="Trazado_1094604" data-name="Trazado 1094604" d="M79.5,128H49.26A1.26,1.26,0,0,0,48,129.26v25.2a1.26,1.26,0,0,0,1.26,1.26H79.5a1.26,1.26,0,0,0,1.26-1.26v-25.2A1.26,1.26,0,0,0,79.5,128Zm-1.26,25.2H50.52v-4.461l7.494-6.427,9.257,9.256,1.782-1.782-1.629-1.627,4.519-4.519,6.3,6.3Zm0-6.823-5.41-5.41a1.26,1.26,0,0,0-1.782,0l-5.41,5.41-6.67-6.67a1.26,1.26,0,0,0-1.71-.066l-6.742,5.778v-14.9H78.245Z" transform="translate(-48 -128)" fill="#fec190"/>
    </g>
  </g>
  <g id="Grupo_1192691" data-name="Grupo 1192691" transform="translate(21.423 25.204)">
    <g id="Grupo_1192690" data-name="Grupo 1192690">
      <path id="Trazado_1094605" data-name="Trazado 1094605" d="M139.781,160a3.781,3.781,0,1,0,3.781,3.781A3.781,3.781,0,0,0,139.781,160Zm0,5.041a1.26,1.26,0,1,1,1.26-1.26A1.26,1.26,0,0,1,139.781,165.041Z" transform="translate(-136 -160)" fill="#fec190"/>
    </g>
  </g>
  <g id="Grupo_1192693" data-name="Grupo 1192693" transform="translate(13.714 25.185)">
    <g id="Grupo_1192692" data-name="Grupo 1192692" transform="translate(0 0)">
      <rect id="Rectángulo_460580" data-name="Rectángulo 460580" width="3" height="3" transform="translate(-0.154 -0.24)" fill="#fec190"/>
    </g>
  </g>
  <g id="Grupo_1192695" data-name="Grupo 1192695" transform="translate(32.645 27.99)">
    <g id="Grupo_1192694" data-name="Grupo 1192694" transform="translate(0 0)">
      <rect id="Rectángulo_460581" data-name="Rectángulo 460581" width="3" height="2" transform="translate(-0.085 -0.045)" fill="#fec190"/>
    </g>
  </g>
</svg>
