<svg xmlns="http://www.w3.org/2000/svg" width="80.652" height="68.614" viewBox="0 0 80.652 68.614">
  <g id="tarifa" transform="translate(0 0)">
    <g id="Grupo_1192696" data-name="Grupo 1192696" transform="translate(0 0)">
      <path id="Trazado_1094606" data-name="Trazado 1094606" d="M278.089,124.912a1.575,1.575,0,0,0-1.575-1.575H250.99a1.575,1.575,0,0,0-1.575,1.575v6.3a1.575,1.575,0,0,0,1.575,1.575h25.524a1.575,1.575,0,0,0,1.575-1.575Zm-3.15,4.726H252.565v-3.15h22.373Z" transform="translate(-210.126 -109.899)" fill="#fec190"/>
      <path id="Trazado_1094607" data-name="Trazado 1094607" d="M278.089,211.96a1.575,1.575,0,0,0-1.575-1.575H250.99a1.575,1.575,0,0,0,0,3.15h25.524A1.575,1.575,0,0,0,278.089,211.96Z" transform="translate(-210.126 -183.235)" fill="#fec190"/>
      <path id="Trazado_1094608" data-name="Trazado 1094608" d="M250.99,257.433a1.575,1.575,0,0,0,0,3.15H256.3a1.575,1.575,0,1,0,0-3.15Z" transform="translate(-210.126 -222.872)" fill="#fec190"/>
      <path id="Trazado_1094609" data-name="Trazado 1094609" d="M54.807,106.385a14.807,14.807,0,1,0,14.807,14.807A14.824,14.824,0,0,0,54.807,106.385Zm-7.194,23.969a5.223,5.223,0,0,1,5.182-4.621h4.024A5.223,5.223,0,0,1,62,130.354a11.619,11.619,0,0,1-14.388,0Zm9.8-10.381a2.609,2.609,0,0,1-5.218,0v-1.5a2.609,2.609,0,0,1,5.218,0Zm7.09,7.675a8.411,8.411,0,0,0-4.852-4.571,5.724,5.724,0,0,0,.912-3.1v-1.5a5.76,5.76,0,0,0-11.519,0v1.5a5.723,5.723,0,0,0,.912,3.1,8.413,8.413,0,0,0-4.852,4.571,11.657,11.657,0,1,1,19.4,0Z" transform="translate(-33.699 -95.618)" fill="#fec190"/>
      <path id="Trazado_1094610" data-name="Trazado 1094610" d="M74.351,75.886V46.261a7.885,7.885,0,0,0-7.876-7.876H47.415a1.575,1.575,0,0,0,0,3.15h19.06A4.731,4.731,0,0,1,71.2,46.261V73.774a17.578,17.578,0,0,0-25.444,12.5H7.876A4.731,4.731,0,0,1,3.15,81.546V46.261a4.731,4.731,0,0,1,4.726-4.726H33.238a1.575,1.575,0,1,0,0-3.15H7.876A7.885,7.885,0,0,0,0,46.261V81.546a7.885,7.885,0,0,0,7.876,7.876h37.61A17.583,17.583,0,1,0,74.351,75.886ZM63.069,103.794A14.433,14.433,0,1,1,77.5,89.361,14.449,14.449,0,0,1,63.069,103.794Z" transform="translate(0 -38.329)" fill="#fec190"/>
      <path id="Trazado_1094611" data-name="Trazado 1094611" d="M370.838,301.085a2.215,2.215,0,0,1,2.372,2.007,1.575,1.575,0,1,0,3.15,0,5.227,5.227,0,0,0-3.948-4.943v-.13a1.575,1.575,0,0,0-3.151,0v.13a5.227,5.227,0,0,0-3.948,4.943,5.356,5.356,0,0,0,5.523,5.158,2.035,2.035,0,1,1-2.372,2.007,1.575,1.575,0,1,0-3.15,0,5.227,5.227,0,0,0,3.951,4.944,1.573,1.573,0,0,0,3.144,0,5.227,5.227,0,0,0,3.951-4.944,5.356,5.356,0,0,0-5.523-5.158,2.035,2.035,0,1,1,0-4.014Z" transform="translate(-307.769 -255.738)" fill="#fec190"/>
      <ellipse id="Elipse_13772" data-name="Elipse 13772" cx="1" cy="2" rx="1" ry="2" transform="translate(39.373 0.001)" fill="#fec190"/>
    </g>
  </g>
</svg>
