<svg id="XMLID_1880_" xmlns="http://www.w3.org/2000/svg" width="74" height="74" viewBox="0 0 74 74">
  <g id="XMLID_621_">
    <path id="XMLID_622_" d="M222.423,356.4a1.444,1.444,0,1,0,1.022-.424A1.456,1.456,0,0,0,222.423,356.4Z" transform="translate(-189.914 -304.529)" fill="#b3c867"/>
    <path id="XMLID_1486_" d="M449.445,403a1.446,1.446,0,1,0,1.022.423A1.456,1.456,0,0,0,449.445,403Z" transform="translate(-383.25 -344.754)" fill="#b3c867"/>
    <path id="XMLID_1777_" d="M72.555,38.445H66.2V26.32a7.249,7.249,0,0,0-5.668-7.04L55.8,18.247a7.566,7.566,0,0,0,2.654-5.755V7.582a7.582,7.582,0,1,0-15.165,0v4.91a7.566,7.566,0,0,0,2.647,5.749l-4.723,1.036a7.25,7.25,0,0,0-5.662,7.039v6.347h-7.8A1.445,1.445,0,0,0,26.3,34.109v4.336H16.188V34.4h6.07A1.445,1.445,0,0,0,23.7,32.953V17.344A1.445,1.445,0,0,0,22.258,15.9H1.445A1.445,1.445,0,0,0,0,17.344V32.953A1.445,1.445,0,0,0,1.445,34.4h6.07v4.047H1.445A1.445,1.445,0,0,0,0,39.891v6.938a1.445,1.445,0,0,0,1.445,1.445H6.359V72.555A1.445,1.445,0,0,0,7.8,74H66.2a1.445,1.445,0,0,0,1.445-1.445V65.473a1.445,1.445,0,0,0-2.891,0v5.637H9.25V54.341h18.5a1.445,1.445,0,0,0,0-2.891H9.25V48.273h55.5V53.91a1.445,1.445,0,0,0,2.891,0V48.273h4.914A1.445,1.445,0,0,0,74,46.828V39.891A1.445,1.445,0,0,0,72.555,38.445ZM46.183,11.468h1.989a13.3,13.3,0,0,0,7.395-2.223v3.247a4.692,4.692,0,1,1-9.384,0Zm4.692,8.606a7.588,7.588,0,0,0,1.319-.117l-1.337,3.01-1.34-3.017A7.6,7.6,0,0,0,50.875,20.074Zm0-17.184a4.7,4.7,0,0,1,4.358,2.958,10.425,10.425,0,0,1-7.061,2.729H46.183V7.582A4.7,4.7,0,0,1,50.875,2.891ZM38.445,26.317A4.342,4.342,0,0,1,41.837,22.1l4.987-1.094,2.713,6.108a1.446,1.446,0,0,0,2.642,0l2.713-6.109,5.019,1.1A4.342,4.342,0,0,1,63.3,26.32V38.445H47.7V34.109a1.445,1.445,0,0,0-1.445-1.445h-7.8ZM29.2,35.555H44.8v2.891H29.2ZM2.891,18.789H20.813V31.508H16.165a4.336,4.336,0,0,0-8.626,0H2.891Zm7.516,13.163a1.445,1.445,0,1,1,2.891,0v6.493H10.406Zm60.7,13.43H2.891V41.336H71.109Z" fill="#b3c867"/>
  </g>
</svg>
