<svg xmlns="http://www.w3.org/2000/svg" width="67.149" height="67" viewBox="0 0 67.149 67">
  <g id="ouline" transform="translate(-24 -40.991)">
    <path id="Trazado_1094624" data-name="Trazado 1094624" d="M143.347,41.125a1.2,1.2,0,0,0-1.079-.011l-21.6,10.647A1.2,1.2,0,0,0,120,52.833V92.4a1.2,1.2,0,0,0,1.2,1.2h41.968a1.2,1.2,0,0,0,1.2-1.2V52.833a1.2,1.2,0,0,0-.638-1.06S146.626,42.822,143.347,41.125Zm-.564,11.229,2.3,2.877h-4.6Zm2.076,5.275a2.4,2.4,0,0,1-4.153,0ZM161.968,91.2H122.4V53.574l19.185-9.593v6.033l-4.534,5.667a1.2,1.2,0,0,0,.936,1.949h.152a4.8,4.8,0,0,0,9.289,0h.152a1.2,1.2,0,0,0,.936-1.949l-4.534-5.667V44.033l17.986,9.522Z" transform="translate(-81.611)" fill="#20849e"/>
    <path id="Trazado_1094625" data-name="Trazado 1094625" d="M185.986,220.792v1.2h-5a3.6,3.6,0,0,0-3.391-4.8h-2.4a3.575,3.575,0,0,0-1.568.36A3,3,0,0,0,168,218.994v14.989a1.2,1.2,0,0,0,1.2,1.2h3.6a1.2,1.2,0,0,0,1.2-1.2v-2.4h17.986v2.4a1.2,1.2,0,0,0,1.2,1.2h3.6a1.2,1.2,0,0,0,1.2-1.2V222.591a3,3,0,0,0-3-3h-7.794A1.2,1.2,0,0,0,185.986,220.792Zm-11.991,0a1.2,1.2,0,0,1,1.2-1.2h2.4a1.2,1.2,0,1,1,0,2.4H174Zm11.991,8.394H172.8a1.2,1.2,0,0,0-1.2,1.2v2.4h-1.2V218.994a.6.6,0,0,1,1.2,0v7.794a1.2,1.2,0,0,0,1.2,1.2h13.19Zm0-3.6H174v-1.2h11.991Zm9.593,7.195h-1.2v-1.2h1.2Zm-7.194-10.792h6.595a.6.6,0,0,1,.6.6v6.595h-7.194Z" transform="translate(-122.417 -148.774)" fill="#20849e"/>
    <path id="Trazado_1094626" data-name="Trazado 1094626" d="M26.047,60.445l.351-.351v57.059a1.2,1.2,0,0,0,1.2,1.2H87.055l-.351.351a1.2,1.2,0,0,0,1.7,1.7l2.4-2.4a1.2,1.2,0,0,0,0-1.7l-2.4-2.4a1.2,1.2,0,1,0-1.7,1.7l.351.351h-7.9v-3.6a1.2,1.2,0,0,0-2.4,0v3.6h-4.8v-2.4a1.2,1.2,0,0,0-2.4,0v2.4h-4.8v-3.6a1.2,1.2,0,0,0-2.4,0v3.6h-4.8v-3.6a1.2,1.2,0,0,0-2.4,0v3.6h-4.8v-2.4a1.2,1.2,0,0,0-2.4,0v2.4h-4.8v-3.6a1.2,1.2,0,0,0-2.4,0v3.6h-4.8v-2.4a1.2,1.2,0,0,0-2.4,0v2.4H28.8v-4.8h2.4a1.2,1.2,0,1,0,0-2.4H28.8v-4.8h3.6a1.2,1.2,0,0,0,0-2.4H28.8v-4.8h2.4a1.2,1.2,0,1,0,0-2.4H28.8v-4.8h3.6a1.2,1.2,0,0,0,0-2.4H28.8v-4.8h3.6a1.2,1.2,0,0,0,0-2.4H28.8v-4.8h2.4a1.2,1.2,0,1,0,0-2.4H28.8v-4.8h3.6a1.2,1.2,0,1,0,0-2.4H28.8v-5.5l.351.351a1.2,1.2,0,1,0,1.7-1.7l-2.4-2.4a1.2,1.2,0,0,0-1.7,0l-2.4,2.4a1.2,1.2,0,0,0,1.7,1.7Z" transform="translate(0 -12.759)" fill="#20849e"/>
  </g>
</svg>
