<svg xmlns="http://www.w3.org/2000/svg" width="124" height="124" viewBox="0 0 124 124">
  <g id="Grupo_1192292" data-name="Grupo 1192292" transform="translate(7382.859 9624.454)">
    <g id="Grupo_1190972" data-name="Grupo 1190972" transform="translate(-7776.207 -17585.906)">
      <g id="Grupo_1190808" data-name="Grupo 1190808" transform="translate(-708.875 4775)">
        <circle id="Elipse_11474" data-name="Elipse 11474" cx="62" cy="62" r="62" transform="translate(1102.223 3186.452)" fill="#fff"/>
      </g>
    </g>
    <g id="codificacion" transform="translate(-7358.051 -9592.712)">
      <path id="Trazado_1094198" data-name="Trazado 1094198" d="M64.648,55.271a4.913,4.913,0,1,0,4.919,4.913A4.92,4.92,0,0,0,64.648,55.271Zm0,6.9a1.983,1.983,0,1,1,1.989-1.983A1.986,1.986,0,0,1,64.648,62.167Z" transform="translate(-51.055 -48.984)" fill="#20849e"/>
      <path id="Trazado_1094199" data-name="Trazado 1094199" d="M284.013,55.271H271.02a4.913,4.913,0,1,0,0,9.826h12.993a4.913,4.913,0,1,0,0-9.826Zm0,6.9H271.02a1.983,1.983,0,1,1,0-3.966h12.993a1.983,1.983,0,1,1,0,3.966Z" transform="translate(-227.444 -48.984)" fill="#20849e"/>
      <path id="Trazado_1094200" data-name="Trazado 1094200" d="M152.32,55.271a4.913,4.913,0,1,0,4.919,4.913A4.92,4.92,0,0,0,152.32,55.271Zm0,6.9a1.983,1.983,0,1,1,1.989-1.983A1.986,1.986,0,0,1,152.32,62.167Z" transform="translate(-125.989 -48.984)" fill="#20849e"/>
      <path id="Trazado_1094201" data-name="Trazado 1094201" d="M137.068,222.205a1.465,1.465,0,0,0-1.765,1.084L132.4,235.453a1.465,1.465,0,1,0,2.85.681l2.907-12.163A1.465,1.465,0,0,0,137.068,222.205Z" transform="translate(-113.127 -191.63)" fill="#20849e"/>
      <path id="Trazado_1094202" data-name="Trazado 1094202" d="M198.928,242.254a1.465,1.465,0,0,0,2.069-.12l4.108-4.612a2.033,2.033,0,0,0,0-2.686L201,230.22a1.465,1.465,0,0,0-2.188,1.949l3.571,4.008-3.571,4.008A1.465,1.465,0,0,0,198.928,242.254Z" transform="translate(-169.608 -198.096)" fill="#20849e"/>
      <path id="Trazado_1094203" data-name="Trazado 1094203" d="M63.741,230.1a1.465,1.465,0,0,0-2.069.12l-4.108,4.612a2.032,2.032,0,0,0,0,2.687l4.113,4.617a1.465,1.465,0,1,0,2.188-1.949l-3.571-4.008,3.571-4.008a1.465,1.465,0,0,0-.12-2.069Z" transform="translate(-48.766 -198.097)" fill="#20849e"/>
      <path id="Trazado_1094204" data-name="Trazado 1094204" d="M71.1,59.582h-.544a15.426,15.426,0,0,0-1.1-2.665l.388-.39a3.283,3.283,0,0,0,0-4.643l-.756-.756V19.921C69.087,15.551,66,12,62.212,12H6.875C3.084,12,0,15.551,0,19.921V60.87C0,65.24,3.084,68.8,6.875,68.8h8.6a1.465,1.465,0,0,0,0-2.93h-8.6c-2.138,0-3.944-2.287-3.944-4.995V34.29H66.157V49.1a3.331,3.331,0,0,0-.508-.043h-.005a3.248,3.248,0,0,0-2.312.958l-.4.394a15.466,15.466,0,0,0-2.708-1.118v-.522a3.288,3.288,0,0,0-3.285-3.284H54.291a3.286,3.286,0,0,0-3.28,3.284v.558a15.552,15.552,0,0,0-2.645,1.108l-.379-.378a3.253,3.253,0,0,0-2.317-.963h0a3.262,3.262,0,0,0-2.322.96l-1.873,1.872a3.283,3.283,0,0,0,0,4.638l.4.406a15.472,15.472,0,0,0-1.079,2.616h-.556a3.284,3.284,0,0,0-3.281,3.28v2.654a3.3,3.3,0,0,0,.019.349H28.45a1.465,1.465,0,0,0,0,2.93H40.8a15.381,15.381,0,0,0,1.1,2.637l-.4.394a3.288,3.288,0,0,0,0,4.637l1.874,1.873a3.253,3.253,0,0,0,2.317.963h0a3.261,3.261,0,0,0,2.322-.96l.392-.392a15.48,15.48,0,0,0,2.648,1.1v.567A3.286,3.286,0,0,0,54.341,82.9H57a3.286,3.286,0,0,0,3.28-3.284v-.564a15.441,15.441,0,0,0,2.659-1.1l.391.389a3.252,3.252,0,0,0,2.317.963h.005a3.263,3.263,0,0,0,2.323-.961l1.869-1.872a3.282,3.282,0,0,0,0-4.643l-.391-.391a15.471,15.471,0,0,0,1.095-2.638H71.1a3.286,3.286,0,0,0,3.285-3.28V62.861A3.285,3.285,0,0,0,71.1,59.582ZM2.93,31.36V19.921c0-2.707,1.806-4.995,3.944-4.995H62.212c2.138,0,3.944,2.288,3.944,4.995V31.36H2.93ZM71.455,65.516a.361.361,0,0,1-.355.349H69.425A1.465,1.465,0,0,0,68,67,12.577,12.577,0,0,1,66.381,70.9a1.465,1.465,0,0,0,.2,1.816L67.772,73.9a.351.351,0,0,1,.1.25.34.34,0,0,1-.1.247L65.9,76.268a.353.353,0,0,1-.25.1h0a.341.341,0,0,1-.248-.1l-1.19-1.185a1.465,1.465,0,0,0-1.814-.2A12.553,12.553,0,0,1,58.487,76.5a1.465,1.465,0,0,0-1.14,1.429v1.687a.361.361,0,0,1-.35.354H54.341a.361.361,0,0,1-.35-.354V77.921a1.465,1.465,0,0,0-1.142-1.429,12.571,12.571,0,0,1-3.9-1.615,1.465,1.465,0,0,0-1.813.206l-1.185,1.185a.353.353,0,0,1-.25.1h0a.34.34,0,0,1-.247-.1l-1.877-1.876a.361.361,0,0,1,0-.493l1.19-1.185a1.465,1.465,0,0,0,.2-1.82A12.487,12.487,0,0,1,43.349,67a1.465,1.465,0,0,0-1.428-1.138H40.237a.355.355,0,0,1-.35-.349V62.862a.355.355,0,0,1,.35-.349h1.68a1.465,1.465,0,0,0,1.429-1.14,12.569,12.569,0,0,1,1.6-3.874,1.465,1.465,0,0,0-.206-1.81l-1.2-1.2a.336.336,0,0,1-.1-.242.351.351,0,0,1,.1-.249l1.873-1.872a.353.353,0,0,1,.25-.1h0a.342.342,0,0,1,.248.1L47.095,53.3a1.465,1.465,0,0,0,1.818.2,12.639,12.639,0,0,1,3.9-1.634,1.465,1.465,0,0,0,1.131-1.427V48.765a.357.357,0,0,1,.35-.354h2.651a.359.359,0,0,1,.355.354v1.65a1.465,1.465,0,0,0,1.147,1.43,12.561,12.561,0,0,1,3.953,1.63,1.466,1.466,0,0,0,1.813-.2l1.195-1.19a.338.338,0,0,1,.243-.1h0a.352.352,0,0,1,.25.1l1.873,1.872a.351.351,0,0,1,.1.25.341.341,0,0,1-.1.247l-1.186,1.189a1.465,1.465,0,0,0-.2,1.816A12.541,12.541,0,0,1,68,61.373a1.465,1.465,0,0,0,1.429,1.139H71.1a.361.361,0,0,1,.355.349Z" transform="translate(0 -11.996)" fill="#20849e"/>
      <path id="Trazado_1094205" data-name="Trazado 1094205" d="M330.513,309.652a8.948,8.948,0,1,0,8.949,8.95A8.962,8.962,0,0,0,330.513,309.652Zm0,14.965a6.017,6.017,0,1,1,6.019-6.015A6.026,6.026,0,0,1,330.513,324.617Z" transform="translate(-274.842 -266.407)" fill="#20849e"/>
      <path id="Trazado_1094206" data-name="Trazado 1094206" d="M142.666,382.778h-.029a1.465,1.465,0,1,0,0,2.93h.029a1.465,1.465,0,1,0,0-2.93Z" transform="translate(-120.662 -328.909)" fill="#20849e"/>
    </g>
  </g>
</svg>
