<svg xmlns="http://www.w3.org/2000/svg" width="68.998" height="69" viewBox="0 0 68.998 69">
  <g id="reserva" transform="translate(-0.007)">
    <path id="Trazado_1093788" data-name="Trazado 1093788" d="M108.9,447.758h5.982c3.468,0,3.473-5.4,0-5.4H108.9C105.437,442.356,105.432,447.758,108.9,447.758Zm0-3.381h5.982a.68.68,0,0,1,0,1.36H108.9A.68.68,0,0,1,108.9,444.377Z" transform="translate(-91.97 -382.741)" fill="#7d8c48"/>
    <path id="Trazado_1093789" data-name="Trazado 1093789" d="M112.684,255.872l-6.585,6.585-2.28-2.281a1.011,1.011,0,0,0-1.429,1.429l3,3a1.011,1.011,0,0,0,1.429,0l7.3-7.3a1.011,1.011,0,0,0-1.43-1.429Z" transform="translate(-88.326 -221.131)" fill="#7d8c48"/>
    <path id="Trazado_1093790" data-name="Trazado 1093790" d="M68.255,44.715a10.6,10.6,0,0,1-.9-2.489A51.321,51.321,0,0,0,62.9,30.353l-3.289-6.278a4.577,4.577,0,0,0-8.394.935,4.576,4.576,0,0,0-5.911,3.1,4.588,4.588,0,0,0-5.462,2V3.949A3.954,3.954,0,0,0,35.894,0H12.348a1.011,1.011,0,0,0,0,2.021H35.894a1.93,1.93,0,0,1,1.928,1.928V6.9H2.028V3.949A1.93,1.93,0,0,1,3.956,2.021H6.688A1.011,1.011,0,0,0,6.688,0H3.956A3.954,3.954,0,0,0,.007,3.949v61.1A3.954,3.954,0,0,0,3.956,69H35.894a3.954,3.954,0,0,0,3.949-3.949V52.581l3.612,1.786a4.575,4.575,0,0,1,2.066,2.07,6.641,6.641,0,0,0,8.947,2.92L60.49,56.2a1.011,1.011,0,0,0-.938-1.791L53.53,57.567a4.593,4.593,0,0,1-6.2-2.022,6.609,6.609,0,0,0-2.983-2.99L29.024,44.974c-2.879-1.4-.8-5.914,2.127-4.551l5.565,2.93a1.018,1.018,0,0,0,1.366-1.363L28.414,23.536c-1.588-2.985,2.664-5.739,4.286-2.644l6.834,13.044,1.785,3.407a1.012,1.012,0,0,0,1.791-.938l-1.738-3.317a2.521,2.521,0,0,1,4.055-2.6l1.934,3.691a1.012,1.012,0,0,0,1.791-.938l-1.966-3.753a2.536,2.536,0,0,1,4.125-2.121l1.946,3.715a1.012,1.012,0,0,0,1.791-.938L53.1,26.427a2.523,2.523,0,0,1,4.72-1.414l3.289,6.278a49.307,49.307,0,0,1,4.275,11.4,12.037,12.037,0,0,0,1.08,2.957A4.556,4.556,0,0,1,64.546,51.8a1.011,1.011,0,0,0,.938,1.791,6.58,6.58,0,0,0,2.772-8.872ZM37.822,65.051a1.93,1.93,0,0,1-1.928,1.928H3.956a1.93,1.93,0,0,1-1.928-1.928V57.641H37.822ZM26,40.753a4.567,4.567,0,0,0,.341,4.492,8.879,8.879,0,1,1,2.435-6.883A4.615,4.615,0,0,0,26,40.753Zm7.339-22.214a4.529,4.529,0,0,0-1.507-.807A4.585,4.585,0,0,0,26.041,23H6.853a.337.337,0,0,1-.337-.337V15.444a.337.337,0,0,1,.337-.337H33a.337.337,0,0,1,.337.337Zm4.488,7.774-2.466-4.707V15.444A2.361,2.361,0,0,0,33,13.086H6.853a2.361,2.361,0,0,0-2.358,2.358v7.223a2.361,2.361,0,0,0,2.358,2.358h20.06l7.873,15.027-2.712-1.428-.037-.018a4.545,4.545,0,0,0-1.249-.387,10.9,10.9,0,1,0-2.967,8.4c3.207,1.848,6.684,3.317,10,4.958v4.038H2.028V8.925H37.822Z" transform="translate(0 0)" fill="#7d8c48"/>
  </g>
</svg>
