<svg id="cuestionario" xmlns="http://www.w3.org/2000/svg" width="59.998" height="59.986" viewBox="0 0 59.998 59.986">
  <path id="Trazado_1093982" data-name="Trazado 1093982" d="M12,6a7,7,0,1,0,7,7,7,7,0,0,0-7-7Zm0,12a5,5,0,1,1,5-5,5,5,0,0,1-5,5Z" fill="#c5a07a"/>
  <path id="Trazado_1093983" data-name="Trazado 1093983" d="M12,22a7,7,0,1,0,7,7,7,7,0,0,0-7-7Zm0,12a5,5,0,1,1,5-5,5,5,0,0,1-5,5Z" fill="#c5a07a"/>
  <path id="Trazado_1093984" data-name="Trazado 1093984" d="M12,38a7,7,0,1,0,7,7,7,7,0,0,0-7-7Zm0,12a5,5,0,1,1,5-5,5,5,0,0,1-5,5Z" fill="#c5a07a"/>
  <path id="Trazado_1093985" data-name="Trazado 1093985" d="M13.2,10.4l-2.308,3.078-.185-.185a1,1,0,1,0-1.414,1.414l1,1A1,1,0,0,0,11,16h.071a1,1,0,0,0,.729-.4l3-4a1,1,0,0,0-1.6-1.2Z" fill="#c5a07a"/>
  <path id="Trazado_1093986" data-name="Trazado 1093986" d="M13.2,26.4l-2.308,3.078-.185-.185a1,1,0,1,0-1.414,1.414l1,1A1,1,0,0,0,11,32h.071a1,1,0,0,0,.729-.4l3-4a1,1,0,0,0-1.6-1.2Z" fill="#c5a07a"/>
  <path id="Trazado_1093987" data-name="Trazado 1093987" d="M13.2,42.4l-2.308,3.078-.185-.185a1,1,0,1,0-1.414,1.414l1,1A1,1,0,0,0,11,48h.071a1,1,0,0,0,.729-.4l3-4a1,1,0,0,0-1.6-1.2Z" fill="#c5a07a"/>
  <path id="Trazado_1093988" data-name="Trazado 1093988" d="M22,10h6a1,1,0,0,0,0-2H22a1,1,0,0,0,0,2Z" fill="#c5a07a"/>
  <path id="Trazado_1093989" data-name="Trazado 1093989" d="M22,14H35a1,1,0,0,0,0-2H22a1,1,0,0,0,0,2Z" fill="#c5a07a"/>
  <path id="Trazado_1093990" data-name="Trazado 1093990" d="M22,18H32a1,1,0,0,0,0-2H22a1,1,0,0,0,0,2Z" fill="#c5a07a"/>
  <path id="Trazado_1093991" data-name="Trazado 1093991" d="M22,26h4a1,1,0,0,0,0-2H22a1,1,0,0,0,0,2Z" fill="#c5a07a"/>
  <path id="Trazado_1093992" data-name="Trazado 1093992" d="M42,22.051V9a1,1,0,0,0-.293-.707l-8-8A1,1,0,0,0,33,0H3A3,3,0,0,0,0,3V55a3,3,0,0,0,3,3H32.566A18.98,18.98,0,1,0,42,22.051ZM34,3.414,38.586,8H35a1,1,0,0,1-1-1ZM3,56a1,1,0,0,1-1-1V3A1,1,0,0,1,3,2H32V7a3,3,0,0,0,3,3h5V22.051A18.923,18.923,0,0,0,27.182,28H22a1,1,0,0,0,0,2h3.537a18.821,18.821,0,0,0-1.264,2H22a1,1,0,0,0,0,2h1.353a18.833,18.833,0,0,0-1.3,6H22a1,1,0,0,0,0,2h.051a18.785,18.785,0,0,0,.21,2H22a1,1,0,0,0,0,2h.69a18.663,18.663,0,0,0,.663,2H22a1,1,0,0,0,0,2h2.273a19.1,19.1,0,0,0,5.108,6Zm38,2A17,17,0,1,1,58,41,17,17,0,0,1,41,58Z" fill="#c5a07a"/>
  <path id="Trazado_1093993" data-name="Trazado 1093993" d="M41,26A10.011,10.011,0,0,0,31,36a3,3,0,0,0,6,0,4,4,0,1,1,4,4,3,3,0,0,0-3,3v2a3,3,0,0,0,5.948.559A10,10,0,0,0,41,26Zm1.776,17.806A1,1,0,0,0,42,44.78V45a1,1,0,0,1-2,0V43a1,1,0,0,1,1-1,6,6,0,1,0-6-6,1,1,0,0,1-2,0,8,8,0,1,1,9.776,7.806Z" fill="#c5a07a"/>
  <path id="Trazado_1093994" data-name="Trazado 1093994" d="M41,50a3,3,0,1,0,3,3,3,3,0,0,0-3-3Zm0,4a1,1,0,1,1,1-1A1,1,0,0,1,41,54Z" fill="#c5a07a"/>
</svg>
