<svg xmlns="http://www.w3.org/2000/svg" width="124" height="124" viewBox="0 0 124 124">
  <g id="Grupo_1192291" data-name="Grupo 1192291" transform="translate(7248.859 9624.454)">
    <g id="Grupo_1192282" data-name="Grupo 1192282" transform="translate(-7642.207 -17585.906)">
      <g id="Grupo_1190808" data-name="Grupo 1190808" transform="translate(-708.875 4775)">
        <circle id="Elipse_11474" data-name="Elipse 11474" cx="62" cy="62" r="62" transform="translate(1102.223 3186.452)" fill="#fff"/>
      </g>
    </g>
    <g id="desarrollador-de-software" transform="translate(-7217.041 -9595.397)">
      <g id="Grupo_1192267" data-name="Grupo 1192267" transform="translate(0 0)">
        <path id="Trazado_1094215" data-name="Trazado 1094215" d="M60.509,126.56a1.382,1.382,0,0,0-1.955.049l-3.93,4.13a1.383,1.383,0,0,0,0,1.906l3.93,4.13a1.383,1.383,0,1,0,2-1.906l-3.023-3.177,3.023-3.177A1.383,1.383,0,0,0,60.509,126.56Z" transform="translate(-46.742 -112.854)" fill="#20849e"/>
        <path id="Trazado_1094216" data-name="Trazado 1094216" d="M195.432,136.823a1.4,1.4,0,0,0,1.955-.049l3.93-4.13a1.383,1.383,0,0,0,0-1.906l-3.93-4.13a1.383,1.383,0,1,0-2,1.906l3.023,3.177-3.023,3.177A1.383,1.383,0,0,0,195.432,136.823Z" transform="translate(-168.04 -112.854)" fill="#20849e"/>
        <path id="Trazado_1094217" data-name="Trazado 1094217" d="M121.679,137a1.4,1.4,0,0,0,1.9-.452l5.088-8.26a1.383,1.383,0,1,0-2.355-1.45l-5.088,8.26A1.383,1.383,0,0,0,121.679,137Z" transform="translate(-104.288 -112.852)" fill="#20849e"/>
        <path id="Trazado_1094218" data-name="Trazado 1094218" d="M79.277,231.017H55.625a1.383,1.383,0,0,0,0,2.765H79.277a1.383,1.383,0,1,0,0-2.765Z" transform="translate(-46.742 -203.196)" fill="#20849e"/>
        <path id="Trazado_1094219" data-name="Trazado 1094219" d="M55.625,281.762a1.383,1.383,0,1,0,0,2.765H72.541a1.383,1.383,0,0,0,0-2.765Z" transform="translate(-46.742 -246.925)" fill="#20849e"/>
        <path id="Trazado_1094220" data-name="Trazado 1094220" d="M230.243,283.145a1.383,1.383,0,0,0,1.383,1.383h11.812a1.383,1.383,0,1,0,0-2.765H231.626A1.383,1.383,0,0,0,230.243,283.145Z" transform="translate(-198.408 -246.925)" fill="#20849e"/>
        <path id="Trazado_1094221" data-name="Trazado 1094221" d="M166.177,83.837a1.382,1.382,0,1,0,.612-1.741A1.392,1.392,0,0,0,166.177,83.837Z" transform="translate(-143.111 -74.723)" fill="#20849e"/>
        <path id="Trazado_1094222" data-name="Trazado 1094222" d="M270.359,233.207a1.382,1.382,0,1,0,.382-1.916A1.4,1.4,0,0,0,270.359,233.207Z" transform="translate(-232.781 -203.236)" fill="#20849e"/>
        <path id="Trazado_1094223" data-name="Trazado 1094223" d="M69.154,46.248l-1.169-.675a.7.7,0,0,1,0-1.122l1.169-.675a3.282,3.282,0,0,0,1.2-4.477l-2.181-3.777a3.312,3.312,0,0,0-4.476-1.2L62.527,35a.68.68,0,0,1-.971-.56V33.087a3.281,3.281,0,0,0-3.278-3.278H53.918a3.281,3.281,0,0,0-3.278,3.278v1.351a.68.68,0,0,1-.971.56l-1.17-.675a3.312,3.312,0,0,0-4.477,1.2l-.86,1.489H30.533a1.383,1.383,0,0,0,0,2.765H41.614a3.311,3.311,0,0,0,1.428,4l1.169.675a.7.7,0,0,1,0,1.121l-1.172.676a3.282,3.282,0,0,0-1.2,4.477l2.18,3.775A3.313,3.313,0,0,0,48.5,55.7l1.169-.676a.681.681,0,0,1,.971.56v1.351a3.307,3.307,0,0,0,3.229,3.277l.971.06V71.7H2.765V41.075a1.192,1.192,0,0,1,1.156-1.3h14.2a1.383,1.383,0,0,0,0-2.765H3.922A3.952,3.952,0,0,0,0,41.075V77.724H0A3.9,3.9,0,0,0,3.921,81.5H22.416l-.674,5.784a2.593,2.593,0,0,1-2.578,2.3h0a.492.492,0,0,0-.057,0l-1.581,0a1.383,1.383,0,0,0,0,2.765h23.97a1.383,1.383,0,0,0,0-2.765l-1.581,0h-.06a2.593,2.593,0,0,1-2.578-2.3v0L36.6,81.5H53.684a3.905,3.905,0,0,0,3.923-3.78V60.214h.672a3.281,3.281,0,0,0,3.278-3.278V55.585a.681.681,0,0,1,.97-.561l1.17.677a3.312,3.312,0,0,0,4.477-1.2l2.181-3.776a3.281,3.281,0,0,0-1.2-4.477ZM54.841,74.468v3.256a1.134,1.134,0,0,1-1.156,1.015H3.922a1.134,1.134,0,0,1-1.156-1.015V74.468ZM34.528,87.6a5.354,5.354,0,0,0,.635,1.99H23.854a5.34,5.34,0,0,0,.635-1.988l.711-6.1h8.618ZM67.959,49.342l-2.181,3.776a.515.515,0,0,1-.7.188l-1.171-.677a3.464,3.464,0,0,0-5.119,2.955v1.351a.513.513,0,0,1-.512.512H53.918a.517.517,0,0,1-.512-.512V55.586a3.464,3.464,0,0,0-5.12-2.956l-1.17.676a.517.517,0,0,1-.7-.188l-2.181-3.776a.513.513,0,0,1,.187-.7l1.171-.676a3.481,3.481,0,0,0,0-5.911l-1.169-.675a.522.522,0,0,1-.188-.7L46.417,36.9a.515.515,0,0,1,.7-.187l1.17.675a3.464,3.464,0,0,0,5.119-2.955V33.086a.513.513,0,0,1,.512-.512h4.36a.513.513,0,0,1,.512.512v1.351a3.464,3.464,0,0,0,5.119,2.955l1.17-.675a.514.514,0,0,1,.7.187l2.181,3.777a.513.513,0,0,1-.188.7l-1.168.675a3.483,3.483,0,0,0,0,5.912l1.169.675A.513.513,0,0,1,67.959,49.342Z" transform="translate(0 -29.809)" fill="#20849e"/>
        <path id="Trazado_1094224" data-name="Trazado 1094224" d="M369.823,98.108a5.759,5.759,0,1,0,5.76,5.759A5.765,5.765,0,0,0,369.823,98.108Zm0,8.753a2.994,2.994,0,1,1,0-5.987,3.032,3.032,0,0,1,2.995,2.994A3,3,0,0,1,369.823,106.861Z" transform="translate(-313.726 -88.664)" fill="#20849e"/>
      </g>
    </g>
  </g>
</svg>
