<svg xmlns="http://www.w3.org/2000/svg" width="65" height="75.49" viewBox="0 0 65 75.49">
  <g id="turismo" transform="translate(-35.573)">
    <path id="Trazado_1094612" data-name="Trazado 1094612" d="M227.824,181.764a1.106,1.106,0,0,0-.052,1.563,5.44,5.44,0,0,0,7.815,0,1.106,1.106,0,1,0-1.615-1.511,3.23,3.23,0,0,1-4.585,0,1.105,1.105,0,0,0-1.563-.052Z" transform="translate(-163.607 -154.711)" fill="#20849e"/>
    <path id="Trazado_1094613" data-name="Trazado 1094613" d="M216.094,138.244a1.106,1.106,0,1,0-2.212,0v1.121a1.106,1.106,0,1,0,2.212,0Z" transform="translate(-152.019 -116.918)" fill="#20849e"/>
    <path id="Trazado_1094614" data-name="Trazado 1094614" d="M200.261,111.1a1.1,1.1,0,0,0,.808-.35,1.931,1.931,0,0,1,2.727,0,1.106,1.106,0,0,0,1.615-1.511,4.141,4.141,0,0,0-5.958,0,1.106,1.106,0,0,0,.808,1.861Z" transform="translate(-139.463 -92.052)" fill="#20849e"/>
    <path id="Trazado_1094615" data-name="Trazado 1094615" d="M284.224,137.138a1.106,1.106,0,0,0-1.106,1.106v1.121a1.106,1.106,0,1,0,2.212,0v-1.121A1.106,1.106,0,0,0,284.224,137.138Z" transform="translate(-211.047 -116.918)" fill="#20849e"/>
    <path id="Trazado_1094616" data-name="Trazado 1094616" d="M270.306,110.746a1.931,1.931,0,0,1,2.727,0,1.106,1.106,0,0,0,1.615-1.511,4.141,4.141,0,0,0-5.958,0,1.106,1.106,0,0,0,1.615,1.511Z" transform="translate(-198.492 -92.052)" fill="#20849e"/>
    <path id="Trazado_1094617" data-name="Trazado 1094617" d="M100.564,70.661A4.513,4.513,0,0,0,99.2,67.69L90.076,49.73a11.8,11.8,0,0,0-1.583-2.356V33.029a6.95,6.95,0,0,0,1.72.29,4.052,4.052,0,0,0,4.041-4.05V19.683a4.054,4.054,0,0,0-4.05-4.049H85.217v-3.9A8.583,8.583,0,0,0,84.838,9.2a1.106,1.106,0,1,0-2.113.652,6.37,6.37,0,0,1,.281,1.881v7.727c-.215-.007.129,0-2.447,0V13.582a5.4,5.4,0,0,0-5.395-5.395H69.578A2.06,2.06,0,0,0,67.67,9.472,3.819,3.819,0,0,1,64.1,11.9H58.744a3.159,3.159,0,0,0-3.155,3.155v4.4s-2.4,0-2.447,0V15.97a2.024,2.024,0,0,0-1.1-1.8,3.953,3.953,0,0,1,.625-7.287,1.863,1.863,0,0,0,1.276-1.441A3.953,3.953,0,0,1,61.3,4.273a2.079,2.079,0,0,0,1.822,1.085H76.634a6.351,6.351,0,0,1,3.457,1.018,1.106,1.106,0,0,0,1.2-1.857,8.556,8.556,0,0,0-4.658-1.373H63.2A6.165,6.165,0,0,0,51.809,4.837a6.166,6.166,0,0,0-1.593,10.8H45.943a4.054,4.054,0,0,0-4.05,4.049V29.27a4.052,4.052,0,0,0,4.041,4.05,4.075,4.075,0,0,0,.924-.106l.8-.184V47.374A11.794,11.794,0,0,0,46.07,49.73L36.949,67.69a4.546,4.546,0,0,0,6.178,6.667l1.839-1.62A1.106,1.106,0,0,0,43.5,71.077L41.664,72.7a2.334,2.334,0,1,1-3.088-3.5l10.777-9.5v1.977a2.392,2.392,0,0,0,2.123,2.374L47.4,67.637A1.106,1.106,0,0,0,48.865,69.3l2.187-1.928v5.1A1.845,1.845,0,0,0,52.9,74.313H83.251a1.845,1.845,0,0,0,1.843-1.843v-5.1l7.926,6.987a4.546,4.546,0,0,0,7.544-3.7ZM94.7,63.717l-7.907-6.971V54.091a2.393,2.393,0,0,0-1.7-2.287V47.246a9.66,9.66,0,0,1,3.01,3.485ZM51.743,61.85a.178.178,0,0,1-.178-.178v-7.58a.178.178,0,0,1,.178-.178h4.532a1.3,1.3,0,0,1,1.3,1.3V60.55a1.3,1.3,0,0,1-1.3,1.3H51.743ZM60.06,43.32a14.952,14.952,0,0,0,16.026,0l1.97.8v4.179H58.09V44.116Zm8.013-4.846A11.582,11.582,0,0,0,73.347,36.8v3.769a2.433,2.433,0,0,0,.5,1.486,12.74,12.74,0,0,1-11.554,0,2.435,2.435,0,0,0,.5-1.486V36.8a11.584,11.584,0,0,0,5.274,1.678ZM82.883,51.7H80.268V43.3l2.3.781a.471.471,0,0,1,.319.446Zm-27-8.352v.007c-.005.992,0,7.332,0,8.344H53.264V44.526a.471.471,0,0,1,.32-.447l2.295-.781ZM58.09,63.555a3.513,3.513,0,0,0,1.7-3.006V55.213a3.513,3.513,0,0,0-1.7-3.006v-1.7H78.057v1.7a3.513,3.513,0,0,0-1.7,3.006v5.336a3.513,3.513,0,0,0,1.7,3.006V72.1H58.09ZM79.871,61.85a1.3,1.3,0,0,1-1.3-1.3V55.213a1.3,1.3,0,0,1,1.3-1.3H84.4a.178.178,0,0,1,.178.178v7.58a.178.178,0,0,1-.178.178H79.871Zm6.411-16.472a11.794,11.794,0,0,0-1.187-.727v-.124a2.682,2.682,0,0,0-1.819-2.541l-2.788-.949a1.825,1.825,0,0,0-2.169.8L75.7,40.779a.231.231,0,0,1-.145-.214V35.334a14.378,14.378,0,0,0,3.936-4.379c1.352.309,4.121.947,6.786,1.563ZM85.217,17.845H90.2a1.84,1.84,0,0,1,1.839,1.837v9.587a1.837,1.837,0,0,1-2.254,1.789c-.265-.061-7.694-1.778-9.462-2.183a7.5,7.5,0,0,0,.2-1.124h2.342a4.147,4.147,0,0,0,2.349-7.567v-2.34Zm-2.349,3.82a1.937,1.937,0,1,1,0,3.875h-2.31V21.666ZM58.744,14.113H64.1A6.018,6.018,0,0,0,69.68,10.4h5.483a3.187,3.187,0,0,1,3.183,3.183V27.115c0,4.352-6.715,9.147-10.273,9.147S57.8,31.467,57.8,27.115V15.057a.944.944,0,0,1,.943-.944Zm-3.155,7.553v3.875h-2.31a1.937,1.937,0,1,1,0-3.875Zm-9.231,9.393A1.837,1.837,0,0,1,44.1,29.27V19.683a1.84,1.84,0,0,1,1.839-1.837h4.987v2.34a4.147,4.147,0,0,0,2.349,7.567H55.62a7.46,7.46,0,0,0,.2,1.124C54.053,29.28,46.623,31,46.357,31.059Zm10.294-.1a14.383,14.383,0,0,0,3.936,4.379v5.231a.23.23,0,0,1-.143.213l-2.617,1.058a1.825,1.825,0,0,0-2.167-.8l-2.789.949a2.682,2.682,0,0,0-1.819,2.541v.124a11.82,11.82,0,0,0-1.187.727V32.518c2.666-.616,5.434-1.254,6.787-1.563Zm-15.2,32.762,6.6-12.986a9.662,9.662,0,0,1,3.01-3.485V51.8a2.393,2.393,0,0,0-1.7,2.287v2.655Zm11.817,1.7,1.54-1.357h1.074V72.1H53.264ZM82.883,72.1H80.268v-8.04h1.073l1.541,1.359Zm14.9.389a2.34,2.34,0,0,1-3.3.208l-9.814-8.652a2.393,2.393,0,0,0,2.124-2.374V59.695L97.57,69.2a2.334,2.334,0,0,1,.209,3.294Z" fill="#20849e"/>
  </g>
</svg>
