<svg xmlns="http://www.w3.org/2000/svg" width="72" height="71.841" viewBox="0 0 72 71.841">
  <g id="ouline" transform="translate(-24 -40.991)">
    <path id="Trazado_1094296" data-name="Trazado 1094296" d="M145.033,41.135a1.282,1.282,0,0,0-1.157-.012L120.711,52.539a1.286,1.286,0,0,0-.711,1.15V96.118a1.286,1.286,0,0,0,1.286,1.286h45a1.286,1.286,0,0,0,1.286-1.286V53.689a1.286,1.286,0,0,0-.684-1.136S148.55,42.955,145.033,41.135Zm-.6,12.041L146.9,56.26h-4.936Zm2.226,5.656a2.57,2.57,0,0,1-4.453,0Zm18.345,36H122.571V54.483L143.143,44.2v6.469l-4.861,6.076a1.286,1.286,0,0,0,1,2.089h.163a5.143,5.143,0,0,0,9.96,0h.163a1.286,1.286,0,0,0,1-2.089l-4.861-6.076V44.253L165,54.463Z" transform="translate(-80.572)" fill="#b3c867"/>
    <path id="Trazado_1094297" data-name="Trazado 1094297" d="M187.286,221.139v1.286h-5.364a3.856,3.856,0,0,0-3.636-5.143h-2.571a3.833,3.833,0,0,0-1.681.386A3.213,3.213,0,0,0,168,219.21v16.071a1.286,1.286,0,0,0,1.286,1.286h3.857a1.286,1.286,0,0,0,1.286-1.286V232.71h19.286v2.571A1.286,1.286,0,0,0,195,236.567h3.857a1.286,1.286,0,0,0,1.286-1.286V223.067a3.218,3.218,0,0,0-3.214-3.214h-8.357A1.286,1.286,0,0,0,187.286,221.139Zm-12.857,0a1.287,1.287,0,0,1,1.286-1.286h2.571a1.286,1.286,0,1,1,0,2.571h-3.857Zm12.857,9H173.143a1.286,1.286,0,0,0-1.286,1.286V234h-1.286V219.21a.643.643,0,0,1,1.286,0v8.357a1.286,1.286,0,0,0,1.286,1.286h14.143Zm0-3.857H174.429V225h12.857ZM197.571,234h-1.286V232.71h1.286Zm-7.714-11.571h7.071a.643.643,0,0,1,.643.643v7.071h-7.714Z" transform="translate(-120.857 -146.878)" fill="#b3c867"/>
    <path id="Trazado_1094298" data-name="Trazado 1094298" d="M26.195,60.766l.377-.377v61.182a1.286,1.286,0,0,0,1.286,1.286H91.61l-.377.377a1.286,1.286,0,0,0,1.818,1.818l2.571-2.571a1.286,1.286,0,0,0,0-1.818l-2.571-2.571a1.286,1.286,0,1,0-1.818,1.818l.377.377H83.143v-3.857a1.286,1.286,0,1,0-2.571,0v3.857H75.428v-2.571a1.286,1.286,0,1,0-2.571,0v2.571H67.714v-3.857a1.286,1.286,0,1,0-2.571,0v3.857H60v-3.857a1.286,1.286,0,1,0-2.571,0v3.857H52.286v-2.571a1.286,1.286,0,1,0-2.571,0v2.571H44.571v-3.857a1.286,1.286,0,1,0-2.571,0v3.857H36.857v-2.571a1.286,1.286,0,1,0-2.571,0v2.571H29.143v-5.143h2.571a1.286,1.286,0,1,0,0-2.571H29.143v-5.143H33a1.286,1.286,0,1,0,0-2.571H29.143V99.714h2.571a1.286,1.286,0,0,0,0-2.571H29.143V92H33a1.286,1.286,0,0,0,0-2.571H29.143V84.286H33a1.286,1.286,0,0,0,0-2.571H29.143V76.571h2.571a1.286,1.286,0,0,0,0-2.571H29.143V68.857H33a1.286,1.286,0,1,0,0-2.571H29.143v-5.9l.377.377a1.286,1.286,0,1,0,1.818-1.818l-2.571-2.571a1.286,1.286,0,0,0-1.818,0l-2.571,2.571a1.286,1.286,0,0,0,1.818,1.818Z" transform="translate(0 -12.597)" fill="#b3c867"/>
  </g>
</svg>
