<svg xmlns="http://www.w3.org/2000/svg" xmlns:xlink="http://www.w3.org/1999/xlink" width="88.348" height="88.348" viewBox="0 0 88.348 88.348">
  <defs>
    <filter id="Elipse_13737" x="0" y="0" width="88.348" height="88.348" filterUnits="userSpaceOnUse">
      <feOffset dy="3" input="SourceAlpha"/>
      <feGaussianBlur stdDeviation="3" result="blur"/>
      <feFlood flood-opacity="0.161"/>
      <feComposite operator="in" in2="blur"/>
      <feComposite in="SourceGraphic"/>
    </filter>
  </defs>
  <g id="Grupo_1191339" data-name="Grupo 1191339" transform="translate(-177 -4842)">
    <g id="Grupo_1192369" data-name="Grupo 1192369">
      <g id="Grupo_1190317" data-name="Grupo 1190317" transform="translate(186 4848)">
        <g transform="matrix(1, 0, 0, 1, -9, -6)" filter="url(#Elipse_13737)">
          <circle id="Elipse_13737-2" data-name="Elipse 13737" cx="35.174" cy="35.174" r="35.174" transform="translate(9 6)" fill="#fff"/>
        </g>
      </g>
      <path id="historial-de-transacciones" d="M44.427,31.814A3.475,3.475,0,0,0,47.9,28.343V24.682a.673.673,0,0,0-.673-.673H42.3V18.676a3.475,3.475,0,0,0-3.471-3.471H12.339a3.392,3.392,0,0,0-3.388,3.389V50.452a2.136,2.136,0,0,1-2.124,2.126h0a.673.673,0,0,0,0,1.347h3.8a.67.67,0,0,0,.32-.081l1.872-1.012.961.909a.673.673,0,0,0,.789.1l2.041-1.131,2.041,1.131a.672.672,0,0,0,.578.035l2.45-.987,1.553.939a.673.673,0,0,0,.655.023l1.876-.962,2.067.973a.677.677,0,0,0,.287.064H32.3a10.242,10.242,0,1,0,5.352-18.973c-.319,0-.635.017-.946.046V31.814h7.719Zm2.124-6.459v2.988a2.127,2.127,0,0,1-2.124,2.125h-.075l-.016,0A2.127,2.127,0,0,1,42.3,28.343V25.355h4.248Zm-5.594-6.679v9.669a3.467,3.467,0,0,0,.729,2.122H36.708V18.678a2.12,2.12,0,0,1,1.935-2.117c.016,0,.031-.007.046-.009h.143a2.127,2.127,0,0,1,2.125,2.124Zm5.594,26.518a8.9,8.9,0,1,1-8.9-8.9A8.907,8.907,0,0,1,46.551,45.194Zm-19.14,0a10.211,10.211,0,0,0,3.155,7.384h-2.3l-2.231-1.049a.671.671,0,0,0-.593.01l-1.836.942-1.52-.919a.669.669,0,0,0-.6-.048l-2.464.993-2.087-1.156a.673.673,0,0,0-.652,0L14.35,52.424l-.957-.906a.674.674,0,0,0-.783-.1l-2.152,1.164H9.564a3.463,3.463,0,0,0,.733-2.124V18.594a2.044,2.044,0,0,1,2.042-2.042H36.086a3.476,3.476,0,0,0-.724,2.124V35.213a10.259,10.259,0,0,0-7.95,9.981Zm4.121-21.347a.673.673,0,0,1-.673.673H14.8a.673.673,0,1,1,0-1.346h16.06A.673.673,0,0,1,31.533,23.847Zm0,4.287a.673.673,0,0,1-.673.673H14.8a.673.673,0,1,1,0-1.347h16.06A.673.673,0,0,1,31.533,28.134Zm0,4.287a.673.673,0,0,1-.673.673H14.8a.673.673,0,1,1,0-1.347h16.06A.673.673,0,0,1,31.533,32.422Zm-1.754,4.286a.673.673,0,0,1-.673.673H14.8a.673.673,0,1,1,0-1.347H29.106A.673.673,0,0,1,29.779,36.708ZM26.82,41a.673.673,0,0,1-.673.673H14.8a.673.673,0,1,1,0-1.347H26.147A.673.673,0,0,1,26.82,41Zm-.789,4.286a.673.673,0,0,1-.673.674H14.8a.673.673,0,1,1,0-1.346H25.358A.673.673,0,0,1,26.031,45.282Zm6.6-.088a.673.673,0,0,1,.673-.673h3.676V38.354a.673.673,0,0,1,1.346,0v6.84a.673.673,0,0,1-.673.674H33.305A.673.673,0,0,1,32.632,45.194Z" transform="translate(194.148 4847.853)" fill="#c5a07a"/>
    </g>
  </g>
</svg>
