<svg xmlns="http://www.w3.org/2000/svg" width="66" height="66" viewBox="0 0 66 66">
  <g id="OUTLINE" transform="translate(-16 -16)">
    <path id="Trazado_1094561" data-name="Trazado 1094561" d="M78.7,16H19.3A3.3,3.3,0,0,0,16,19.3V66.6a3.3,3.3,0,0,0,3.3,3.3H40.96l-2.7,9.9H35.8V82H62.2V79.8H59.74l-2.7-9.9H78.7A3.3,3.3,0,0,0,82,66.6V19.3A3.3,3.3,0,0,0,78.7,16ZM57.46,79.8H40.54l2.7-9.9H54.76ZM79.8,66.6a1.1,1.1,0,0,1-1.1,1.1H19.3a1.1,1.1,0,0,1-1.1-1.1V62.2H79.8Zm0-6.6H18.2V19.3a1.1,1.1,0,0,1,1.1-1.1H78.7a1.1,1.1,0,0,1,1.1,1.1Z" fill="#b3c867"/>
    <path id="Trazado_1094562" data-name="Trazado 1094562" d="M58.2,48H56V72.2h55V70H58.2Z" transform="translate(-34.5 -27.6)" fill="#b3c867"/>
    <path id="Trazado_1094563" data-name="Trazado 1094563" d="M88.539,78.854a3.3,3.3,0,0,0,1.226-.237l8.658-3.463a3.286,3.286,0,0,0,1.52-1.233l4.469-6.7a1.087,1.087,0,0,1,.893-.49h.024a1.086,1.086,0,0,1,.888.453l4.941,6.794a3.3,3.3,0,0,0,5.534-.3l5.424-9.492a1.1,1.1,0,0,1,1.845-.1l6.8,9.348,1.779-1.294-6.8-9.348a3.3,3.3,0,0,0-5.534.3l-5.424,9.492a1.1,1.1,0,0,1-1.845.1L108,65.886a3.3,3.3,0,0,0-5.415.11l-4.469,6.7a1.1,1.1,0,0,1-.507.411l-8.658,3.463a1.1,1.1,0,0,1-1.341-.438L83.082,68.9l-1.866,1.166,4.525,7.24a3.3,3.3,0,0,0,2.8,1.552Z" transform="translate(-56.249 -39.178)" fill="#b3c867"/>
    <path id="Trazado_1094564" data-name="Trazado 1094564" d="M0,0H3.875V2.2H0Z" transform="matrix(0.524, -0.852, 0.852, 0.524, 72.432, 25.305)" fill="#b3c867"/>
    <path id="Trazado_1094565" data-name="Trazado 1094565" d="M360.216,127.306a1.1,1.1,0,0,1-.918-.365l-.967-1.088-1.644,1.461.967,1.088a3.266,3.266,0,0,0,2.458,1.108q.148,0,.3-.013a3.27,3.27,0,0,0,2.522-1.558l1.833-2.979-1.874-1.153-1.833,2.979A1.09,1.09,0,0,1,360.216,127.306Z" transform="translate(-293.843 -92.984)" fill="#b3c867"/>
    <path id="Trazado_1094566" data-name="Trazado 1094566" d="M301.754,98.668a1.1,1.1,0,0,1,1.372-.223l1.1-1.9a3.312,3.312,0,0,0-4.117.666l-.311.35,1.644,1.461Z" transform="translate(-244.776 -69.087)" fill="#b3c867"/>
    <path id="Trazado_1094567" data-name="Trazado 1094567" d="M230.822,140.858l-1.744-1.017-1.109,1.9,1.744,1.017a3.308,3.308,0,0,0,4.129-.658l1.736-1.954-1.644-1.461-1.736,1.954A1.1,1.1,0,0,1,230.822,140.858Z" transform="translate(-182.823 -105.816)" fill="#b3c867"/>
    <path id="Trazado_1094568" data-name="Trazado 1094568" d="M126.891,110.967a1.1,1.1,0,0,1,1.372-.214l2.854,1.665,1.109-1.9-2.854-1.665a3.313,3.313,0,0,0-4.115.643l-3.2,3.558,1.635,1.472Z" transform="translate(-91.471 -79.7)" fill="#b3c867"/>
    <path id="Trazado_1094569" data-name="Trazado 1094569" d="M0,0H2.96V2.2H0Z" transform="translate(25.076 39.468) rotate(-48)" fill="#b3c867"/>
    <path id="Trazado_1094570" data-name="Trazado 1094570" d="M56,240h8.8v2.2H56Z" transform="translate(-34.5 -193.2)" fill="#b3c867"/>
    <path id="Trazado_1094571" data-name="Trazado 1094571" d="M56,272H69.2v2.2H56Z" transform="translate(-34.5 -220.8)" fill="#b3c867"/>
    <path id="Trazado_1094572" data-name="Trazado 1094572" d="M168,272h4.4v2.2H168Z" transform="translate(-131.1 -220.8)" fill="#b3c867"/>
    <path id="Trazado_1094573" data-name="Trazado 1094573" d="M216,272h4.4v2.2H216Z" transform="translate(-172.5 -220.8)" fill="#b3c867"/>
    <path id="Trazado_1094574" data-name="Trazado 1094574" d="M56,304H69.2v2.2H56Z" transform="translate(-34.5 -248.4)" fill="#b3c867"/>
    <path id="Trazado_1094575" data-name="Trazado 1094575" d="M168,304h4.4v2.2H168Z" transform="translate(-131.1 -248.4)" fill="#b3c867"/>
    <path id="Trazado_1094576" data-name="Trazado 1094576" d="M216,304h4.4v2.2H216Z" transform="translate(-172.5 -248.4)" fill="#b3c867"/>
    <path id="Trazado_1094577" data-name="Trazado 1094577" d="M277.5,240a5.5,5.5,0,0,0,0,11v-2.2a3.3,3.3,0,1,1,3.3-3.3H283A5.506,5.506,0,0,0,277.5,240Z" transform="translate(-220.8 -193.2)" fill="#b3c867"/>
    <path id="Trazado_1094578" data-name="Trazado 1094578" d="M381.5,248.8a3.3,3.3,0,1,1,0-6.6V240a5.5,5.5,0,1,0,5.5,5.5h-2.2a3.3,3.3,0,0,1-3.3,3.3Z" transform="translate(-310.5 -193.2)" fill="#b3c867"/>
  </g>
</svg>
